<?xml version="1.0" encoding="iso-8859-1"?>
<!-- Generator: Adobe Illustrator 16.2.0, SVG Export Plug-In . SVG Version: 6.00 Build 0)  -->
<!DOCTYPE svg PUBLIC "-//W3C//DTD SVG 1.1//EN" "http://www.w3.org/Graphics/SVG/1.1/DTD/svg11.dtd">
<svg version="1.1" id="&#x421;&#x43B;&#x43E;&#x439;_1"
	 xmlns="http://www.w3.org/2000/svg" xmlns:xlink="http://www.w3.org/1999/xlink" x="0px" y="0px" width="19px" height="10px"
	 viewBox="0 0 19 10" style="enable-background:new 0 0 19 10;" xml:space="preserve">
<path d="M17.3,0.3l-8,8C8.9,8.7,8.819,9.6,9.219,10C9.906,9.999,10.3,10.1,10.7,9.7l8-8c0.399-0.4,0.399-1,0-1.4
	C18.3-0.1,17.7-0.1,17.3,0.3z"/>
<path d="M1.7,0.3l8,8c0.399,0.4,0.434,1.64,0.009,1.651C9.25,10,8.7,10.1,8.3,9.7l-8-8c-0.4-0.4-0.4-1,0-1.4
	C0.7-0.1,1.3-0.1,1.7,0.3z"/>
</svg>
