<?xml version="1.0" encoding="iso-8859-1"?>
<!-- Generator: Adobe Illustrator 16.2.0, SVG Export Plug-In . SVG Version: 6.00 Build 0)  -->
<!DOCTYPE svg PUBLIC "-//W3C//DTD SVG 1.1//EN" "http://www.w3.org/Graphics/SVG/1.1/DTD/svg11.dtd">
<svg version="1.1" id="&#x421;&#x43B;&#x43E;&#x439;_1"
	 xmlns="http://www.w3.org/2000/svg" xmlns:xlink="http://www.w3.org/1999/xlink" x="0px" y="0px" width="16px" height="15.9px"
	 viewBox="0 0 16 15.9" style="enable-background:new 0 0 16 15.9;" xml:space="preserve">
<path d="M7-2.95H1.5c-0.5,0-1,0.4-1,1c0,0.601,0.4,1,1,1h3.1l-5.2,5.2c-0.2,0.2-0.3,0.4-0.3,0.7s0.1,0.5,0.3,0.7
	c0.2,0.2,0.4,0.3,0.7,0.3c0.301,0,0.5-0.101,0.7-0.3L6,0.45v3.101c0,0.5,0.4,1,1,1s1-0.399,1-1v-5.5C8-2.55,7.6-2.95,7-2.95z"/>
<path d="M3,11.051h-9v-9h6l2-2h-9.2c-0.5,0-0.8,0.4-0.8,0.801v11.3c0,0.5,0.4,0.8,0.8,0.8H4.1c0.5,0,0.801-0.398,0.801-0.8v-9.2
	l-2,2v6.102H3V11.051z"/>
</svg>
