<?xml version="1.0" encoding="iso-8859-1"?>
<!-- Generator: Adobe Illustrator 16.2.0, SVG Export Plug-In . SVG Version: 6.00 Build 0)  -->
<!DOCTYPE svg PUBLIC "-//W3C//DTD SVG 1.1//EN" "http://www.w3.org/Graphics/SVG/1.1/DTD/svg11.dtd">
<svg version="1.1" id="&#x421;&#x43B;&#x43E;&#x439;_1"
	 xmlns="http://www.w3.org/2000/svg" xmlns:xlink="http://www.w3.org/1999/xlink" x="0px" y="0px" width="24.1px" height="16.9px"
	 viewBox="0 0 24.1 16.9" style="enable-background:new 0 0 24.1 16.9;" xml:space="preserve">
<path d="M11.95-7.45h-1L10.15-7.85C9.95-8.25,9.65-8.45,9.25-8.45h-4.5c-0.399,0-0.8,0.199-0.899,0.601L2.951-7.45h-9
	c-1.801,0-3,1.9-3,3.601v9.1c0,1.801,1.5,3.201,3.3,3.201h17.5c1.8,0,3.3-1.4,3.3-3.201v-9.1C14.95-5.55,13.75-7.45,11.95-7.45z
	 M8.95-7.45h-4H8.95z M12.95,5.351c0,0.698-0.601,1.299-1.301,1.299h-17.5c-0.699,0-1.3-0.601-1.3-1.299v-9.103
	c0-0.699,0.3-1.6,1-1.6h18c0.699,0,1,0.899,1,1.6L12.95,5.351L12.95,5.351z"/>
<path d="M2.95-3.45c-2.2,0-4,1.802-4,4c0,2.199,1.8,4,4,4c2.199,0,4-1.801,4-4C6.95-1.649,5.15-3.45,2.95-3.45z M2.95,2.55
	c-1.4,0-2-0.6-2-2c0-1.399,0.6-2,2-2c1.399,0,2,0.601,2,2C4.95,1.95,4.351,2.55,2.95,2.55z"/>
<path d="M-6.05-8.45h3v3h-3V-8.45z"/>
</svg>
