<?xml version="1.0" encoding="iso-8859-1"?>
<!-- Generator: Adobe Illustrator 16.2.0, SVG Export Plug-In . SVG Version: 6.00 Build 0)  -->
<!DOCTYPE svg PUBLIC "-//W3C//DTD SVG 1.1//EN" "http://www.w3.org/Graphics/SVG/1.1/DTD/svg11.dtd">
<svg version="1.1" id="&#x421;&#x43B;&#x43E;&#x439;_1"
	 xmlns="http://www.w3.org/2000/svg" xmlns:xlink="http://www.w3.org/1999/xlink" x="0px" y="0px" width="16px" height="16px"
	 viewBox="0 0 16 16" style="enable-background:new 0 0 16 16;" xml:space="preserve">
<path d="M59,77.5c-4.4,0-8,3.6-8,8s3.6,8,8,8s8-3.6,8-8S63.4,77.5,59,77.5z M59,91.8c-3.5,0-6.3-2.8-6.3-6.3s2.8-6.3,6.3-6.3
	s6.3,2.8,6.3,6.3S62.5,91.8,59,91.8z"/>
<path d="M63.2,85.3H59.6V81c0-0.4-0.3-0.7-0.699-0.7s-0.699,0.3-0.699,0.7v5c0,0.4,0.3,0.7,0.699,0.7h4.301
	c0.398,0,0.699-0.3,0.699-0.7S63.5,85.3,63.2,85.3z"/>
</svg>
