<?xml version="1.0" encoding="iso-8859-1"?>
<!-- Generator: Adobe Illustrator 16.2.0, SVG Export Plug-In . SVG Version: 6.00 Build 0)  -->
<!DOCTYPE svg PUBLIC "-//W3C//DTD SVG 1.1//EN" "http://www.w3.org/Graphics/SVG/1.1/DTD/svg11.dtd">
<svg version="1.1" id="&#x421;&#x43B;&#x43E;&#x439;_1"
	 xmlns="http://www.w3.org/2000/svg" xmlns:xlink="http://www.w3.org/1999/xlink" x="0px" y="0px" width="8px" height="8px"
	 viewBox="0 0 8 8" style="enable-background:new 0 0 8 8;" xml:space="preserve">
<path d="M-2.3,1.301l6,6c0.399,0.398,0.399,1,0,1.398c-0.4,0.4-1,0.4-1.4,0l-6-6c-0.4-0.398-0.4-1,0-1.398
	C-3.3,0.9-2.7,0.9-2.3,1.301z"/>
<path d="M-2.3,8.699l6-6c0.399-0.398,0.399-1,0-1.398c-0.4-0.4-1-0.4-1.4,0l-6,6c-0.4,0.398-0.4,1,0,1.398
	C-3.3,9.1-2.7,9.1-2.3,8.699z"/>
</svg>
