<?xml version="1.0" encoding="iso-8859-1"?>
<!-- Generator: Adobe Illustrator 16.2.0, SVG Export Plug-In . SVG Version: 6.00 Build 0)  -->
<!DOCTYPE svg PUBLIC "-//W3C//DTD SVG 1.1//EN" "http://www.w3.org/Graphics/SVG/1.1/DTD/svg11.dtd">
<svg version="1.1" id="&#x421;&#x43B;&#x43E;&#x439;_1"
	 xmlns="http://www.w3.org/2000/svg" xmlns:xlink="http://www.w3.org/1999/xlink" x="0px" y="0px" width="17px" height="23.9px"
	 viewBox="-620 -409.9 17 23.9" style="enable-background:new -620 -409.9 17 23.9;" xml:space="preserve">
<path d="M-611.5-386c-0.7,0-1.3-0.5-2.6-2.7c0.9,1.7-5.9-11.7-5.9-13c0-4.5,3.8-8.2,8.5-8.2s8.5,3.7,8.5,8.2c0,1.4-6.8,14.7-5.9,13
	C-610.2-386.5-610.8-386-611.5-386z M-612-408c-3.1,0-6,2.4-6,6c0,2.1,6.3,13,5.1,10.8c0.7,1.2,1.1,1.9,1.4,2.2
	c0.3-0.3,0.7-0.9,1.4-2.2c-1.1,2.1,5.1-8.7,5.1-10.8C-605-405.6-608.3-408-612-408z"/>
<path d="M-611.5-398.3c-1.9,0-3.5-1.6-3.5-3.6s1.6-3.6,3.5-3.6s3.5,1.6,3.5,3.6S-609.6-398.3-611.5-398.3z M-611.5-403.6
	c-0.9,0-1.6,0.8-1.6,1.7c0,0.9,0.7,1.7,1.6,1.7s1.6-0.8,1.6-1.7S-610.6-403.6-611.5-403.6z"/>
</svg>
