<?xml version="1.0" encoding="iso-8859-1"?>
<!-- Generator: Adobe Illustrator 16.2.0, SVG Export Plug-In . SVG Version: 6.00 Build 0)  -->
<!DOCTYPE svg PUBLIC "-//W3C//DTD SVG 1.1//EN" "http://www.w3.org/Graphics/SVG/1.1/DTD/svg11.dtd">
<svg version="1.1" id="&#x421;&#x43B;&#x43E;&#x439;_1"
	 xmlns="http://www.w3.org/2000/svg" xmlns:xlink="http://www.w3.org/1999/xlink" x="0px" y="0px" width="18px" height="29.1px"
	 viewBox="-1053 559 18 29.1" style="enable-background:new -1053 559 18 29.1;" xml:space="preserve">
<path d="M-1037.6,559h-12.8c-1.4,0-2.6,1.1-2.6,2.5v24.1c0,1.4,1.1,2.5,2.6,2.5h12.8c1.4,0,2.6-1.1,2.6-2.5v-24.1
	C-1035,560.1-1036.2,559-1037.6,559z M-1047.7,560.9h7.3c0.2,0,0.3,0.299,0.3,0.6s-0.1,0.6-0.3,0.6h-7.3c-0.2,0-0.3-0.299-0.3-0.6
	S-1047.8,560.9-1047.7,560.9z M-1044,586.1c-0.9,0-1.6-0.699-1.6-1.6s0.7-1.6,1.6-1.6s1.6,0.699,1.6,1.6S-1043.1,586.1-1044,586.1z
	 M-1037,581h-14v-17h14V581z"/>
</svg>
