<?xml version="1.0" encoding="iso-8859-1"?>
<!-- Generator: Adobe Illustrator 16.2.0, SVG Export Plug-In . SVG Version: 6.00 Build 0)  -->
<!DOCTYPE svg PUBLIC "-//W3C//DTD SVG 1.1//EN" "http://www.w3.org/Graphics/SVG/1.1/DTD/svg11.dtd">
<svg version="1.1" id="&#x421;&#x43B;&#x43E;&#x439;_1"
	 xmlns="http://www.w3.org/2000/svg" xmlns:xlink="http://www.w3.org/1999/xlink" x="0px" y="0px" width="30.587px" height="35.3px"
	 viewBox="-606.587 -838.4 30.587 35.3" style="enable-background:new -606.587 -838.4 30.587 35.3;" xml:space="preserve">
<path d="M-591.9-803.1c27.2,0,9.5-20.4,7.5-19.8c1.3-1.6,2-3.7,2-5.9c0-5.3-4.3-9.6-9.6-9.6s-9.6,4.3-9.6,9.6c0,2.2,0.8,4.2,2,5.9
	C-603.8-820.9-616.4-803.1-591.9-803.1z M-599.3-828.7c0-4,3.3-7.3,7.3-7.3s7.3,3.3,7.3,7.3s-3.3,7.3-7.3,7.3
	C-596-821.3-599.3-824.6-599.3-828.7z M-597.9-821.1c1.7,1.3,3.7,2,5.9,2s4.3-0.8,5.9-2.1c12.7,9.5,6.3,16-5.9,16
	C-603.8-805.2-609.7-811.6-597.9-821.1z"/>
<path d="M-576-813"/>
</svg>
