<?xml version="1.0" encoding="iso-8859-1"?>
<!-- Generator: Adobe Illustrator 16.2.0, SVG Export Plug-In . SVG Version: 6.00 Build 0)  -->
<!DOCTYPE svg PUBLIC "-//W3C//DTD SVG 1.1//EN" "http://www.w3.org/Graphics/SVG/1.1/DTD/svg11.dtd">
<svg version="1.1" id="&#x421;&#x43B;&#x43E;&#x439;_1"
	 xmlns="http://www.w3.org/2000/svg" xmlns:xlink="http://www.w3.org/1999/xlink" x="0px" y="0px" width="16.004px"
	 height="16.004px" viewBox="235.498 16.498 16.004 16.004" style="enable-background:new 235.498 16.498 16.004 16.004;"
	 xml:space="preserve">
<path d="M243.4,16.5c-4.4,0.1-8,3.7-7.9,8.1c0.1,4.4,3.7,8,8.1,7.9c4.4-0.1,8-3.7,7.9-8.1C251.4,20,247.8,16.4,243.4,16.5z
	 M243.4,29.4L243.4,29.4c-0.7,0-1.2-0.5-1.2-1.2s0.5-1.101,1.2-1.101l0,0c0.699,0,1.199,0.5,1.199,1.199
	C244.5,28.9,244,29.4,243.4,29.4z M246.2,23.7c-0.2,0.2-0.5,0.5-1,0.899l-0.5,0.301c-0.3,0.199-0.4,0.398-0.5,0.6
	c0,0.2-0.101,0.2-0.101,0.5v0.1H242.2V25.9c0-0.602,0-1,0.3-1.301c0.4-0.5,1.4-1.101,1.4-1.101c0.1-0.101,0.199-0.2,0.3-0.3
	c0.2-0.301,0.3-0.5,0.3-0.7c0-0.3-0.1-0.601-0.3-0.8c-0.2-0.2-0.5-0.301-0.9-0.301c-0.399,0-0.8,0.101-0.899,0.399
	c-0.199,0.3-0.301,0.601-0.301,0.899v0.101H240.2v-0.101c0-1.199,0.5-2,1.2-2.5c0.5-0.299,1.1-0.5,1.8-0.5
	c0.899,0,1.7,0.201,2.3,0.701s0.9,1.1,0.9,2C246.7,22.8,246.5,23.3,246.2,23.7z"/>
</svg>
