<svg xmlns="http://www.w3.org/2000/svg" xmlns:xlink="http://www.w3.org/1999/xlink"><symbol viewBox="-2.5 -2.5 24 24" id="arr-down"><path d="M19.353 3.556L9.247 13.662c-.504.506-.605 1.644-.1 2.147.87-.002 1.362.127 1.868-.38L21.122 5.326a1.222 1.222 0 0 0 0-1.77 1.22 1.22 0 0 0-1.77 0z"/><path d="M-.352 3.556L9.753 13.662c.505.506.548 2.072.012 2.085-.58.063-1.274.187-1.78-.315L-2.12 5.325a1.222 1.222 0 0 1 0-1.77 1.22 1.22 0 0 1 1.768 0z"/></symbol><symbol viewBox="0 0 24.002 24" id="arrow-right"><path d="M23.702 11.248l-7.102-7.4c-.398-.4-1.102-.4-1.602 0-.398.398-.398 1.198 0 1.6l5.2 5.4H1.1c-.6 0-1.1.5-1.1 1.1 0 .6.5 1.1 1.1 1.1h19.103l-5.2 5.5c-.4.4-.4 1.2 0 1.603.2.2.5.303.8.303.3 0 .6-.103.8-.302l7.1-7.398c.4-.305.4-1.104 0-1.504z"/></symbol><symbol viewBox="-1.875 -2 24 24" id="basket"><path d="M1.785 19.36c0 1.44 1.2 2.64 2.762 2.64h10.92c1.56 0 2.76-1.2 2.76-2.64l.24-16.56h-16.8l.118 16.56zM19.665-.68h-4.8L13.545-2h-6.84L5.385-.68h-4.8V1.6h19.08V-.68z"/></symbol><symbol viewBox="0 0 24 24" id="bell"><path d="M20.874 17.2c-.7-.4-1.7-1.1-1.7-1.7.103-4.3-.897-7.6-2.9-9.5-.5-.4-1-.8-1.5-1.1.4-.5.603-1.1.603-1.8 0-1.7-1.5-3.1-3.3-3.1-1.8 0-3.3 1.4-3.3 3.1 0 .7.2 1.3.6 1.8-.5.3-1 .6-1.5 1.1-2 1.9-3 5.2-2.9 9.5 0 .7-1 1.3-1.7 1.7-.6.4-1.5.9-1.2 1.8.3.9.7 1.102 5.8 1.102C8.077 22 9.775 24 11.974 24c2.2 0 3.9-2 4.102-3.898 5.102 0 5.5-.2 5.8-1.102.398-.898-.4-1.398-1.002-1.8zM12.076 2c.6 0 1.198.5 1.198 1.1s-.5 1.1-1.198 1.1c-.6 0-1.2-.5-1.2-1.1s.498-1.1 1.2-1.1zm0 20c-.9 0-1.7-1-1.9-1.898h3.9c-.302.898-1.1 1.898-2 1.898zm-6.402-4c.8-.6 1.5-1.5 1.4-2.6-.1-3.7.7-6.6 2.3-8.1.8-.7 1.702-1.102 2.702-1.102s1.897.4 2.698 1.102c1.602 1.5 2.4 4.398 2.303 8.1 0 1.2.697 2 1.398 2.6-1.8.102-11 .102-12.8 0z"/></symbol><symbol viewBox="-2 -2 24 24" id="blank"><path d="M20.5-1.928h-8.25c-.75 0-1.5.6-1.5 1.5 0 .903.6 1.5 1.5 1.5h4.65l-7.8 7.8c-.298.3-.45.6-.45 1.05s.152.75.45 1.05c.3.302.6.452 1.05.452.45 0 .75-.152 1.05-.45l7.8-7.8v4.65c0 .75.6 1.5 1.5 1.5s1.5-.597 1.5-1.5v-8.25c0-.9-.6-1.502-1.5-1.502z"/><path d="M14.5 19.073H1v-13.5h9l3-3H-.8c-.75 0-1.2.602-1.2 1.204v16.948c0 .75.6 1.2 1.2 1.2h16.95c.75 0 1.2-.594 1.2-1.2V6.928l-3 3v9.154h.152v-.01H14.5z"/></symbol><symbol viewBox="0 0 24 24" id="calendar"><path d="M3 2h18a3 3 0 0 1 3 3v16a3 3 0 0 1-3 3H3a3 3 0 0 1-3-3V5a3 3 0 0 1 3-3zm0 2h18a1 1 0 0 1 1 1v16a1 1 0 0 1-1 1H3a1 1 0 0 1-1-1V5a1 1 0 0 1 1-1z" fill-rule="evenodd" clip-rule="evenodd"/><path d="M7 0h1a1 1 0 0 1 1 1v2a1 1 0 0 1-1 1H7a1 1 0 0 1-1-1V1a1 1 0 0 1 1-1zM16 0h1a1 1 0 0 1 1 1v2a1 1 0 0 1-1 1h-1a1 1 0 0 1-1-1V1a1 1 0 0 1 1-1zM14 8h4a1 1 0 0 1 1 1v2a1 1 0 0 1-1 1h-4a1 1 0 0 1-1-1V9a1 1 0 0 1 1-1zM6 8h4a1 1 0 0 1 1 1v2a1 1 0 0 1-1 1H6a1 1 0 0 1-1-1V9a1 1 0 0 1 1-1zM14 14h4a1 1 0 0 1 1 1v2a1 1 0 0 1-1 1h-4a1 1 0 0 1-1-1v-2a1 1 0 0 1 1-1zM6 14h4a1 1 0 0 1 1 1v2a1 1 0 0 1-1 1H6a1 1 0 0 1-1-1v-2a1 1 0 0 1 1-1z" fill-rule="evenodd" clip-rule="evenodd"/></symbol><symbol viewBox="0.05 -3.55 24 24" id="camera"><path d="M20.962 1.03h-.996L19.17.634c-.2-.398-.5-.598-.897-.598h-4.48c-.4 0-.798.198-.897.6L12 1.03H3.038C1.244 1.03.05 2.925.05 4.62v9.062c0 1.794 1.494 3.188 3.286 3.188h17.428c1.792 0 3.286-1.394 3.286-3.188V4.618c-.1-1.694-1.295-3.587-3.088-3.587zm-2.987 0h-3.983 3.983zm3.983 12.75c0 .694-.6 1.294-1.297 1.294H3.235A1.32 1.32 0 0 1 1.94 13.78V4.715c0-.696.298-1.593.996-1.593h17.926c.696 0 .995.895.995 1.593l.1 9.065z"/><path d="M12 5.015A3.996 3.996 0 0 0 8.015 9 3.996 3.996 0 0 0 12 12.98c2.188 0 3.982-1.794 3.982-3.983S14.19 5.014 12 5.014zm0 5.975c-1.396 0-1.993-.597-1.993-1.99 0-1.394.597-1.993 1.992-1.993 1.392 0 1.99.6 1.99 1.992 0 1.393-.596 1.99-1.99 1.99zM3.037.036h2.987v2.987H3.037V.036z"/></symbol><symbol viewBox="-504 490.899 22.1 21.087" id="chat"><path d="M-501 493c-.602 0-1 .3-1 .8v11.6c0 .5.398.7 1 .7h7c.3 0 .8-.2 1 0l4 3v-1.8c0-.5.5-1.2 1-1.2h3c.6 0 1-.2 1-.7v-11.6c0-.5-.4-.8-1-.8h-16zm12.3 18.7l-5.3-3.7h-7c-1.7 0-3-1.102-3-2.7v-11.603c0-1.5 1.398-2.8 3.1-2.8h15.9c1.7 0 3.1 1.2 3.1 2.8V505.3c0 1.5-1.3 2.7-3 2.7h-2v3c-.1.9-1.2 1.3-1.8.7z"/></symbol><symbol viewBox="51 77.5 16 16" id="clock"><path d="M59 77.5c-4.4 0-8 3.6-8 8s3.6 8 8 8 8-3.6 8-8-3.6-8-8-8zm0 14.3c-3.5 0-6.3-2.8-6.3-6.3s2.8-6.3 6.3-6.3 6.3 2.8 6.3 6.3-2.8 6.3-6.3 6.3z"/><path d="M63.2 85.3h-3.6V81c0-.4-.3-.7-.7-.7-.397 0-.697.3-.697.7v5c0 .4.3.7.698.7h4.303c.397 0 .698-.3.698-.7s-.4-.7-.7-.7z"/></symbol><symbol viewBox="-4 1 7.999 8" id="cross"><path d="M-2.3 1.3l6 6c.4.4.4 1 0 1.4-.4.4-1 .4-1.4 0l-6-6c-.4-.4-.4-1 0-1.4.4-.4 1-.4 1.4 0z"/><path d="M-2.3 8.7l6-6c.4-.4.4-1 0-1.4-.4-.4-1-.4-1.4 0l-6 6c-.4.4-.4 1 0 1.4.4.4 1 .4 1.4 0z"/></symbol><symbol viewBox="-6 -12 24 24" id="email"><path d="M15.1-8.5H-3.2C-4.8-8.5-6-7.3-6-5.8V5.9c0 1.4 1.2 2.6 2.8 2.6h18.4c1.6 0 2.8-1.2 2.8-2.7V-5.8c-.1-1.5-1.4-2.7-2.9-2.7zm-1 2L6 0l-7.8-6.5h15.9zm1 13H-3.2c-.4 0-.7-.3-.7-.7V-5.6l9.1 7.7c.2.2.4.2.7.2.2 0 .5-.1.6-.2l9.2-7.4V5.8c.1.4-.2.7-.6.7z"/></symbol><symbol viewBox="-507.6 675 24 24" id="lock"><path d="M-502 697h13v-11h-13v11zm6-22c3.3 0 6 2.9 6 6.4l-.1 2.6c.6 0 3 .1 3 3v9c0 2.2-1.1 3-3 3h-11c-.6 0-3-.1-3-3v-9c0-2.2 1.5-2.9 3-3h9l.1-2.6c0-2.4-1.8-4.4-4-4.4s-4 1-4 3.4c0 .6-.4 1-1 1s-1-.4-1-1c0-3.5 2.7-5.4 6-5.4z"/></symbol><symbol viewBox="8.5 -43.95 24 24" id="map-marker"><path d="M20.5-20c-.7 0-1.3-.5-2.6-2.7.9 1.7-5.9-11.7-5.9-13 0-4.5 3.8-8.2 8.5-8.2s8.5 3.7 8.5 8.2c0 1.4-6.8 14.7-5.9 13-1.3 2.2-1.9 2.7-2.6 2.7zM20-42c-3.1 0-6 2.4-6 6 0 2.1 6.3 13 5.1 10.8.7 1.2 1.1 1.9 1.4 2.2.3-.3.7-.9 1.4-2.2C20.8-23.1 27-33.9 27-36c0-3.6-3.3-6-7-6z"/><path d="M20.5-32.3c-1.9 0-3.5-1.6-3.5-3.6s1.6-3.6 3.5-3.6 3.5 1.6 3.5 3.6-1.6 3.6-3.5 3.6zm0-5.3c-.9 0-1.6.8-1.6 1.7 0 .9.7 1.7 1.6 1.7s1.6-.8 1.6-1.7c0-.9-.7-1.7-1.6-1.7z"/></symbol><symbol viewBox="-394.5 488 24 24" id="mic"><path d="M-374 499.5c0-.4-.3-.7-.7-.7-.4 0-.7.3-.7.7 0 3.9-3.2 7.1-7.1 7.1s-7.1-3.2-7.1-7.1c0-.4-.3-.7-.7-.7-.4 0-.7.3-.7.7 0 4.5 2.3 8.4 7.8 8.5l.2 2h-3c-.4 0-1 .6-1 1s.2 1 .6 1h7.8c.4 0 .6-.6.6-1s-.6-1-1-1h-2v-2c4.4-.4 7-4 7-8.5z"/><path d="M-382.5 504.1c2.5 0 4.5-1.6 4.5-4.1v-7c0-2.6-2-5-4.5-5s-4.5 2.4-4.5 5v7c0 2.6 2 4.1 4.5 4.1zM-385 493c0-1.8.7-3.6 2.5-3.6s2.5 1.8 2.5 3.6v7c0 1.8-.7 2.7-2.5 2.7s-2.5-.9-2.5-2.7v-7z"/></symbol><symbol viewBox="104 -38.45 24 24.001" id="mobile-phone"><path d="M121.28-38.45h-10.56c-1.154 0-2.145.907-2.145 2.062v19.877c0 1.154.906 2.06 2.145 2.06h10.56c1.153 0 2.143-.906 2.143-2.06V-36.39c0-1.155-.99-2.062-2.144-2.062zm-8.332 1.567h6.02c.166 0 .25.246.25.495 0 .248-.083.495-.25.495h-6.02c-.165 0-.247-.247-.247-.495 0-.25.166-.495.248-.495zM116-16.1a1.3 1.3 0 0 1-1.318-1.318c0-.743.575-1.32 1.318-1.32s1.318.577 1.318 1.32a1.3 1.3 0 0 1-1.318 1.32zm5.77-4.205h-11.544v-14.02h11.545v14.02z"/></symbol><symbol viewBox="-403.5 -836 24 24" id="out-door"><path d="M-386.3-818.8c-.2 0-.4-.1-.6-.2-.3-.3-.3-.8 0-1.2l3-3h-12c-.5 0-.8-.4-.8-.8s.4-.8.8-.8h12l-3-3c-.3-.3-.3-.8 0-1.2.3-.3.9-.3 1.2 0l4.5 4.4c.2.2.2.4.2.6s-.1.4-.2.6l-4.5 4.4c-.2.1-.4.2-.6.2z"/><path d="M-387.8-812h-13.4c-.5 0-.8-.4-.8-.8v-22.4c0-.5.4-.8.8-.8h13.4c.5 0 .8.4.8.8v2.8c0 .5-.4.8-.8.8-.5 0-.8-.4-.8-.8v-2h-11.7v20.7h11.7v-2c0-.5.4-.8.8-.8.5 0 .8.4.8.8v2.8c.1.5-.3.9-.8.9z"/></symbol><symbol viewBox="86.494 636.372 24 24" id="pencil"><path d="M108.176 642.816l-1.597 1.496-3.99-3.79 1.596-1.498c.3-.3.898-.3 1.197 0l2.793 2.593c.398.3.398.8 0 1.2zM95.01 655.483l-3.99-3.793 10.273-9.773 3.99 3.79-10.274 9.776zm-4.888-1.996l2.992 2.794-4.09 1.098 1.098-3.89zm19.55-13.165l-2.793-2.596c-.5-.5-2.495-1.496-3.99 0L88.926 651.09c-.1.1-.2.302-.3.4l-2.095 7.178c-.1.304 0 .7.3.898.3.2.8.3.997.2l7.48-1.994c.2 0 .3-.103.4-.2l13.963-13.365c1.098-1.093 1.098-2.888 0-3.885z"/></symbol><symbol viewBox="-608.793 -838.25 35 35" id="profile"><path d="M-591.895-803.25c26.968 0 9.42-20.227 7.436-19.632 1.29-1.586 1.984-3.668 1.984-5.85 0-5.255-4.264-9.518-9.52-9.518s-9.518 4.263-9.518 9.518c0 2.182.793 4.165 1.983 5.85-4.163 1.984-16.657 19.632 7.635 19.632zm-7.337-25.382c0-3.966 3.272-7.238 7.238-7.238 3.966 0 7.238 3.272 7.238 7.238 0 3.966-3.27 7.238-7.238 7.238-3.966.1-7.238-3.173-7.238-7.238zm1.388 7.535a9.472 9.472 0 0 0 5.85 1.983 9.353 9.353 0 0 0 5.85-2.082c12.592 9.42 6.247 15.864-5.85 15.864-11.7 0-17.55-6.346-5.85-15.765z"/></symbol><symbol viewBox="231.5 12.5 24 24" id="question-circle"><path d="M243.35 12.503c-6.598.15-11.996 5.55-11.847 12.146.15 6.598 5.55 11.996 12.146 11.847 6.598-.15 11.996-5.55 11.847-12.146-.15-6.598-5.55-11.996-12.146-11.847zm0 19.346c-1.05 0-1.8-.75-1.8-1.8s.75-1.65 1.8-1.65 1.8.75 1.8 1.796c-.15.903-.9 1.653-1.8 1.653zm4.2-8.55c-.3.3-.75.75-1.5 1.35l-.75.45c-.45.3-.6.597-.75.9 0 .3-.15.3-.15.75v.148h-2.85V26.6c0-.903 0-1.5.45-1.95.6-.75 2.1-1.652 2.1-1.652.15-.152.3-.3.45-.45.3-.45.45-.75.45-1.05 0-.45-.15-.9-.45-1.2-.3-.3-.75-.45-1.35-.45s-1.2.15-1.35.6c-.297.448-.45.9-.45 1.348v.15h-2.85v-.15c0-1.8.75-3 1.8-3.75a5.192 5.192 0 0 1 2.7-.75c1.35 0 2.55.303 3.448 1.053.9.748 1.35 1.647 1.35 2.998.45.602.15 1.352-.3 1.953z"/></symbol><symbol viewBox="-385.55 -545 24 24" id="skype"><path d="M-377.8-543c1 0 2 .3 2.8.8.4-.1 1-.2 1.6-.2 2.5 0 4.6.9 6.4 2.7 1.8 1.8 2.6 4.1 2.6 6.7 0 .6-.1 1.3-.2 2 .4.8.5 1.6.5 2.5 0 1.5-.5 2.8-1.6 3.9-1 1.1-2.3 1.6-3.7 1.6-.9 0-1.7-.2-2.5-.7-.7.1-1.3.2-1.7.2-2.5 0-4.7-.9-6.4-2.7-1.8-1.8-2.7-4.1-2.7-6.7 0-.6.102-1.2.2-1.9-.5-.8-.7-1.8-.7-2.8 0-1.5.5-2.8 1.5-3.8 1-1.1 2.602-1 4-1m4.2 13.5c-.5 0-.9-.1-1.2-.2-.3-.2-.6-.4-.7-.5-.3-.6-.5-.9-.5-.9-.1-.3-.3-.6-.5-.8-.3-.2-.5-.3-.8-.3-.4 0-.7.1-.9.4-.2.2-.4.5-.4.8 0 .5.2 1 .5 1.6.3.5.8 1 1.4 1.3.8.4 1.9.7 3.1.7 1 0 1.9-.2 2.7-.5.8-.4 1.3-.8 1.7-1.4.4-.6.6-1.3.6-2 0-.6-.1-1.1-.3-1.6-.2-.4-.5-.7-1-1.1-.5-.3-1-.5-1.5-.7-.9-.3-1.5-.4-1.9-.5-.198 0-.398-.1-.698-.1-.3-.1-.4-.1-.5-.1-.3-.1-.5-.2-.7-.3-.2-.1-.4-.2-.5-.4-.1-.1-.2-.3-.2-.5 0-.3.2-.6.5-.8.3-.3.8-.4 1.5-.4.6 0 1.1.1 1.4.4.3.3.6.6.7 1 .2.3.4.6.5.7.2.2.5.2.7.2.3 0 .6-.1.9-.4.2-.2.398-.5.398-.9 0-.3-.1-.6-.3-1-.2-.3-.5-.6-.8-.9-.4-.3-.8-.5-1.4-.7-.6-.2-1.3-.3-2-.3-.9 0-1.8.1-2.5.4-.7.3-1.3.7-1.7 1.2-.4.5-.6 1.1-.6 1.8s.2 1.3.5 1.8c.4.5.9.9 1.5 1.1.6.3 1.4.5 2.3.7.2 0 .3.1.6.1.2.1.4.1.6.2.2 0 .3.1.4.1.4.1.7.3.9.5.2.2.4.5.4.8 0 .4-.2.8-.6 1.1-.3.3-.9.4-1.6.4m-4-16.1c-2.1 0-3.9.8-5.3 2.3s-2.2 3.3-2.2 5.4c0 1.1.2 2.1.6 3-.1.5-.1.9-.1 1.4 0 3.1 1.1 5.9 3.2 8.1 2.2 2.2 4.8 3.4 7.9 3.4.3 0 .7 0 1.1-.1.9.4 1.8.5 2.7.5 2 0 3.9-.8 5.3-2.3s2.2-3.4 2.2-5.4c0-.9-.1-1.7-.4-2.6.1-.6.1-1.1.1-1.6 0-3.1-1.1-5.9-3.2-8.1-2.2-2.2-4.8-3.4-7.9-3.4h-1c-.9-.4-1.9-.6-3-.6z"/></symbol><symbol viewBox="-442 -832.988 24 24" id="tick"><path d="M-421.652-829.353l-12.223 12.223-4.472-4.472c-.896-.895-2.087-.895-2.98 0-.897.745-.897 2.086 0 2.98l5.96 5.963c.448.448.895.596 1.49.596s1.045-.15 1.492-.595l13.713-13.712c.894-.894.894-2.086 0-2.98-.894-.746-2.235-.746-2.98 0z"/></symbol><symbol viewBox="669.902 459.5 24 24" id="video-camera"><path d="M680 480h3c.1 0-.1 0 0 0 .5-.1 1-.5 1-1v-2h4c.5 0 1-1.1 1-1v-1.6l3.1.8c.2.1.4 0 .603 0 .1 0 .2-.1.3-.2.3-.2.9-.7.9-1v-9c0-.3-.7-.6-.9-.8-.3-.2-.6-.3-1-.2l-3.1.8v-1.1c0-.6-.4-.7-1-.7h-17c-.603 0-1 .4-1 1v12c0 .6.397 1 1 1h4l-.103 1.6c0 .3.103.5.3.7.2.2.5.6.803.6h2M682 478h-5v-1h5v1zm5-3h-15v-10h15v10zm5-2l-3-.8v-5.3l3-1v7.1z"/><path d="M675 470.1c-.4.1-.7.4-.9.7-.197.4-.197.8-.1 1.1.1.4.4.7.7.9.3.2.8.2 1.1.1.4-.1.7-.395.9-.7.2-.3.2-.8.1-1.1-.1-.4-.397-.7-.7-.9-.3-.2-.7-.2-1.1-.1z"/></symbol></svg>