<svg xmlns="http://www.w3.org/2000/svg" xmlns:xlink="http://www.w3.org/1999/xlink"><symbol viewBox="0 0 24 24" id="arr-down"><path d="M23.631 6.048a1.26 1.26 0 0 0-1.784 0L12 15.894 2.154 6.048A1.26 1.26 0 1 0 .37 7.833l10.121 10.12c.341.34 1.066.385 1.486.382.438.004 1.193-.041 1.534-.382l10.121-10.12a1.265 1.265 0 0 0-.001-1.785z" fill-rule="evenodd" clip-rule="evenodd"/></symbol><symbol viewBox="0 0 24.002 24" id="arrow-right"><path d="M23.702 11.248l-7.102-7.4c-.398-.4-1.102-.4-1.602 0-.398.398-.398 1.198 0 1.6l5.2 5.4H1.1c-.6 0-1.1.5-1.1 1.1 0 .601.5 1.101 1.1 1.101h19.103l-5.201 5.499c-.399.399-.399 1.2 0 1.603.2.199.5.302.8.302.301 0 .602-.103.801-.302l7.101-7.399c.399-.305.399-1.104-.002-1.504z"/></symbol><symbol viewBox="-1.875 -2 24 24" id="basket"><path d="M1.785 19.361C1.785 20.8 2.984 22 4.547 22h10.921c1.56 0 2.76-1.2 2.76-2.639l.24-16.56H1.667l.118 16.56zM19.665-.68h-4.8L13.545-2h-6.84L5.385-.68h-4.8V1.6h19.081V-.68z"/></symbol><symbol viewBox="0 0 24 24" id="bell"><path d="M20.874 17.199c-.699-.398-1.699-1.1-1.699-1.699.102-4.299-.898-7.599-2.9-9.499-.5-.4-1-.801-1.5-1.1.4-.5.602-1.1.602-1.801 0-1.699-1.5-3.1-3.299-3.1-1.801 0-3.301 1.4-3.301 3.1 0 .701.2 1.301.6 1.801-.5.299-1 .6-1.5 1.1-2 1.9-3 5.199-2.9 9.499 0 .699-1 1.301-1.7 1.699-.6.4-1.5.9-1.2 1.801.3.9.7 1.102 5.8 1.102C8.076 22 9.775 24 11.974 24c2.201 0 3.9-2 4.102-3.898 5.102 0 5.5-.199 5.801-1.102.397-.898-.401-1.398-1.003-1.801zM12.076 2.001c.601 0 1.198.5 1.198 1.1s-.5 1.1-1.198 1.1c-.601 0-1.201-.5-1.201-1.1s.499-1.1 1.201-1.1zm0 19.999c-.9 0-1.701-1-1.9-1.898h3.9c-.302.898-1.1 1.898-2 1.898zm-6.402-4c.8-.6 1.5-1.5 1.4-2.6-.1-3.7.7-6.6 2.3-8.1.8-.7 1.702-1.102 2.702-1.102s1.897.4 2.698 1.102c1.602 1.5 2.4 4.398 2.303 8.1 0 1.199.697 2 1.398 2.6-1.8.102-11 .102-12.801 0z"/></symbol><symbol viewBox="-2 -2 24 24" id="blank"><path d="M20.5-1.928h-8.25c-.75 0-1.5.601-1.5 1.5 0 .903.601 1.5 1.5 1.5h4.649L9.101 8.873c-.299.3-.451.6-.451 1.05s.152.75.451 1.05c.299.301.599.451 1.049.451.451 0 .75-.152 1.05-.451l7.8-7.8v4.651c0 .75.601 1.5 1.5 1.5s1.5-.597 1.5-1.5v-8.25c0-.901-.601-1.502-1.5-1.502z"/><path d="M14.5 19.073H1V5.574h9l3-3H-.8c-.75 0-1.2.601-1.2 1.203v16.948c0 .75.6 1.201 1.2 1.201h16.95c.75 0 1.201-.595 1.201-1.201V6.928l-3 3v9.154h.151v-.009H14.5z"/></symbol><symbol viewBox="0 0 24 24" id="calendar"><path d="M21 2h-3V1a1 1 0 0 0-1-1h-1a1 1 0 0 0-1 1v1H9V1a1 1 0 0 0-1-1H7a1 1 0 0 0-1 1v1H3a3 3 0 0 0-3 3v16a3 3 0 0 0 3 3h18a3 3 0 0 0 3-3V5a3 3 0 0 0-3-3zm1 19a1 1 0 0 1-1 1H3a1 1 0 0 1-1-1V5a1 1 0 0 1 1-1h18a1 1 0 0 1 1 1v16z"/><path d="M18 8h-4a1 1 0 0 0-1 1v2a1 1 0 0 0 1 1h4a1 1 0 0 0 1-1V9a1 1 0 0 0-1-1zM10 8H6a1 1 0 0 0-1 1v2a1 1 0 0 0 1 1h4a1 1 0 0 0 1-1V9a1 1 0 0 0-1-1zM18 14h-4a1 1 0 0 0-1 1v2a1 1 0 0 0 1 1h4a1 1 0 0 0 1-1v-2a1 1 0 0 0-1-1zM10 14H6a1 1 0 0 0-1 1v2a1 1 0 0 0 1 1h4a1 1 0 0 0 1-1v-2a1 1 0 0 0-1-1z"/></symbol><symbol viewBox="0 0 24 24" id="camera"><path d="M11.999 8.563a3.996 3.996 0 0 0-3.983 3.983 3.996 3.996 0 0 0 3.983 3.984 3.998 3.998 0 0 0 3.983-3.984 3.997 3.997 0 0 0-3.983-3.983zm0 5.976c-1.395 0-1.992-.598-1.992-1.992 0-1.393.597-1.992 1.992-1.992 1.394 0 1.992.599 1.992 1.992 0 1.394-.596 1.992-1.992 1.992z"/><path d="M20.962 4.579h-.996l-.797-.398c-.198-.398-.498-.598-.896-.598h-4.481c-.397 0-.797.198-.896.599L12 4.579H6.024v-.995H3.037v.995C1.244 4.58.05 6.473.05 8.167v9.062c0 1.795 1.494 3.188 3.286 3.188h17.428c1.793 0 3.286-1.393 3.286-3.188V8.167c-.101-1.695-1.295-3.588-3.088-3.588zm-.301 14.044H3.234a1.32 1.32 0 0 1-1.294-1.295V8.263c0-.696.298-1.593.996-1.593h17.925c.697 0 .996.895.996 1.593l.101 9.065c0 .695-.601 1.295-1.297 1.295z"/></symbol><symbol viewBox="-504 490.899 22.1 21.087" id="chat"><path d="M-501 493c-.602 0-1 .301-1 .801v11.6c0 .5.398.699 1 .699h7c.3 0 .8-.199 1 0l4 3v-1.799c0-.5.5-1.201 1-1.201h3c.6 0 1-.199 1-.699v-11.6c0-.5-.4-.801-1-.801h-16zm12.3 18.699L-494 508h-7c-1.7 0-3-1.102-3-2.699v-11.604c0-1.5 1.398-2.799 3.1-2.799h15.9c1.7 0 3.1 1.199 3.1 2.799v11.604c0 1.5-1.3 2.699-3 2.699h-2v3c-.1.9-1.2 1.301-1.8.699z"/></symbol><symbol viewBox="51 77.5 16 16" id="clock"><path d="M59 77.5c-4.4 0-8 3.6-8 8s3.6 8 8 8 8-3.6 8-8-3.6-8-8-8zm0 14.3c-3.5 0-6.3-2.8-6.3-6.3s2.8-6.3 6.3-6.3 6.3 2.8 6.3 6.3-2.8 6.3-6.3 6.3z"/><path d="M63.2 85.3h-3.6V81c0-.4-.3-.7-.699-.7-.398 0-.698.3-.698.7v5c0 .4.3.7.698.7h4.302c.397 0 .698-.3.698-.7s-.401-.7-.701-.7z"/></symbol><symbol viewBox="0 0 24 24" id="cross"><path d="M16.269 12l6.847-6.848A3.018 3.018 0 1 0 18.847.883L12 7.731 5.154.884A3.018 3.018 0 1 0 .885 5.153L7.73 12 .884 18.846a3.02 3.02 0 0 0 4.269 4.27L12 16.27l6.847 6.846a3.02 3.02 0 0 0 4.269-4.27L16.269 12z" fill-rule="evenodd" clip-rule="evenodd"/></symbol><symbol viewBox="-6 -12 24 24" id="email"><path d="M15.1-8.5H-3.2C-4.8-8.5-6-7.301-6-5.801V5.9c0 1.4 1.2 2.6 2.8 2.6h18.4c1.6 0 2.8-1.199 2.8-2.699V-5.801c-.1-1.5-1.4-2.699-2.9-2.699zm-1 2L6 0l-7.8-6.5h15.9zm1 13H-3.2c-.4 0-.7-.301-.7-.699V-5.6l9.1 7.7c.2.201.4.201.7.201.199 0 .5-.102.6-.201l9.2-7.4V5.801c.1.398-.2.699-.6.699z"/></symbol><symbol viewBox="0 0 510 510" id="info"><path d="M229.5 382.5h51v-153h-51v153zM255 0C114.75 0 0 114.75 0 255s114.75 255 255 255 255-114.75 255-255S395.25 0 255 0zm0 459c-112.2 0-204-91.8-204-204S142.8 51 255 51s204 91.8 204 204-91.8 204-204 204zm-25.5-280.5h51v-51h-51v51z"/></symbol><symbol viewBox="-507.6 675 24 24" id="lock"><path d="M-502 697h13v-11h-13v11zm6-22c3.3 0 6 2.9 6 6.4l-.1 2.6c.6 0 3 .1 3 3v9c0 2.199-1.1 3-3 3h-11c-.6 0-3-.1-3-3v-9c0-2.199 1.5-2.9 3-3h9l.1-2.6c0-2.4-1.8-4.4-4-4.4s-4 1-4 3.4c0 .6-.4 1-1 1s-1-.4-1-1c0-3.5 2.7-5.4 6-5.4z"/></symbol><symbol viewBox="8.5 -43.95 24 24" id="map-marker"><path d="M20.5-20c-.7 0-1.3-.5-2.6-2.7.9 1.7-5.9-11.7-5.9-13 0-4.5 3.8-8.199 8.5-8.199S29-40.2 29-35.7c0 1.4-6.8 14.7-5.9 13-1.3 2.2-1.9 2.7-2.6 2.7zM20-42c-3.1 0-6 2.4-6 6 0 2.101 6.3 13 5.1 10.8.7 1.2 1.101 1.9 1.4 2.2.3-.3.7-.899 1.4-2.2C20.8-23.1 27-33.9 27-36c0-3.6-3.3-6-7-6z"/><path d="M20.5-32.3c-1.9 0-3.5-1.6-3.5-3.6s1.6-3.601 3.5-3.601S24-37.9 24-35.9s-1.6 3.6-3.5 3.6zm0-5.3c-.9 0-1.6.8-1.6 1.7 0 .9.7 1.7 1.6 1.7s1.6-.8 1.6-1.699c0-.901-.7-1.701-1.6-1.701z"/></symbol><symbol viewBox="-394.5 488 24 24" id="mic"><path d="M-374 499.5c0-.4-.3-.699-.7-.699-.4 0-.7.299-.7.699 0 3.9-3.2 7.1-7.1 7.1s-7.1-3.199-7.1-7.1c0-.4-.3-.699-.7-.699-.4 0-.7.299-.7.699 0 4.5 2.3 8.4 7.8 8.5l.2 2h-3c-.4 0-1 .6-1 1s.2 1 .6 1h7.8c.4 0 .6-.6.6-1s-.6-1-1-1h-2v-2c4.4-.4 7-4 7-8.5z"/><path d="M-382.5 504.1c2.5 0 4.5-1.6 4.5-4.1v-7c0-2.6-2-5-4.5-5s-4.5 2.4-4.5 5v7c0 2.6 2 4.1 4.5 4.1zM-385 493c0-1.801.7-3.6 2.5-3.6s2.5 1.799 2.5 3.6v7c0 1.801-.7 2.699-2.5 2.699s-2.5-.898-2.5-2.699v-7z"/></symbol><symbol viewBox="104 -38.45 24 24.001" id="mobile-phone"><path d="M121.279-38.45H110.72c-1.154 0-2.145.907-2.145 2.062v19.877c0 1.155.906 2.062 2.145 2.062h10.559c1.154 0 2.144-.907 2.144-2.062v-19.877c0-1.155-.989-2.062-2.144-2.062zm-8.331 1.567h6.021c.165 0 .248.246.248.495 0 .248-.082.495-.248.495h-6.021c-.165 0-.247-.247-.247-.495 0-.249.165-.495.247-.495zM116-16.099a1.3 1.3 0 0 1-1.318-1.319c0-.743.575-1.32 1.318-1.32s1.318.577 1.318 1.32A1.3 1.3 0 0 1 116-16.099zm5.771-4.206h-11.545v-14.021h11.545v14.021z"/></symbol><symbol viewBox="-403.5 -836 24 24" id="out-door"><path d="M-386.3-818.8c-.2 0-.4-.1-.6-.2-.3-.3-.3-.8 0-1.2l3-3h-12c-.5 0-.8-.4-.8-.8s.4-.8.8-.8h12l-3-3c-.3-.3-.3-.8 0-1.2.3-.3.9-.3 1.2 0l4.5 4.4c.2.2.2.4.2.6s-.1.4-.2.6l-4.5 4.4c-.2.1-.4.2-.6.2z"/><path d="M-387.8-812h-13.4c-.5 0-.8-.4-.8-.8v-22.4c0-.5.4-.8.8-.8h13.4c.5 0 .8.4.8.8v2.8c0 .5-.4.8-.8.8-.5 0-.8-.4-.8-.8v-2h-11.7v20.7h11.7v-2c0-.5.4-.8.8-.8.5 0 .8.4.8.8v2.8c.1.5-.3.9-.8.9z"/></symbol><symbol viewBox="86.494 636.372 24 24" id="pencil"><path d="M108.176 642.816l-1.597 1.496-3.989-3.791 1.596-1.497c.299-.3.898-.3 1.197 0l2.793 2.593c.398.3.398.799 0 1.199zm-13.167 12.667l-3.989-3.793 10.273-9.773 3.989 3.789-10.273 9.777zm-4.887-1.996l2.992 2.794-4.09 1.097 1.098-3.891zm19.549-13.165l-2.792-2.596c-.499-.499-2.494-1.496-3.989 0l-13.964 13.365c-.101.1-.2.301-.3.399l-2.095 7.178c-.1.304 0 .7.299.898.3.201.799.301.997.201l7.48-1.995c.2 0 .301-.103.4-.2l13.963-13.365c1.098-1.093 1.098-2.888.001-3.885z"/></symbol><symbol viewBox="-608.793 -838.25 35 35" id="profile"><path d="M-591.895-803.25c26.968 0 9.419-20.227 7.436-19.632 1.289-1.586 1.983-3.668 1.983-5.85 0-5.255-4.264-9.518-9.519-9.518s-9.519 4.263-9.519 9.518c0 2.182.793 4.165 1.983 5.85-4.162 1.984-16.656 19.632 7.636 19.632zm-7.337-25.382c0-3.966 3.272-7.238 7.238-7.238 3.966 0 7.238 3.272 7.238 7.238 0 3.966-3.271 7.238-7.238 7.238-3.966.099-7.238-3.173-7.238-7.238zm1.388 7.535a9.472 9.472 0 0 0 5.85 1.983 9.353 9.353 0 0 0 5.85-2.082c12.592 9.419 6.247 15.864-5.85 15.864-11.699 0-17.55-6.346-5.85-15.765z"/></symbol><symbol viewBox="231.5 12.5 24 24" id="question-circle"><path d="M243.351 12.503c-6.599.149-11.997 5.549-11.848 12.146.149 6.599 5.549 11.997 12.146 11.848 6.599-.149 11.997-5.549 11.848-12.146-.149-6.599-5.549-11.997-12.146-11.848zm0 19.346c-1.05 0-1.8-.75-1.8-1.8s.75-1.65 1.8-1.65c1.049 0 1.799.75 1.799 1.797-.15.903-.9 1.653-1.799 1.653zm4.198-8.548c-.3.3-.749.75-1.499 1.349l-.75.451c-.449.299-.601.596-.75.899 0 .3-.15.3-.15.749v.149h-2.849V26.6c0-.903 0-1.499.449-1.95.601-.75 2.101-1.652 2.101-1.652.149-.152.299-.3.449-.45.301-.451.45-.75.45-1.049 0-.451-.149-.902-.45-1.201-.3-.299-.75-.451-1.35-.451s-1.2.152-1.35.6c-.297.449-.45.9-.45 1.349v.15h-2.849v-.15c0-1.799.75-3 1.8-3.749a5.192 5.192 0 0 1 2.699-.75c1.349 0 2.549.302 3.448 1.052.899.749 1.351 1.648 1.351 2.999.45.602.15 1.352-.3 1.953z"/></symbol><symbol viewBox="-385.55 -545 24 24" id="skype"><path d="M-377.8-543c1 0 2 .3 2.8.8.4-.1 1-.2 1.601-.2 2.5 0 4.6.9 6.399 2.7 1.8 1.8 2.601 4.1 2.601 6.7 0 .6-.101 1.3-.2 2 .399.8.5 1.6.5 2.5 0 1.5-.5 2.8-1.601 3.9-1 1.1-2.3 1.6-3.699 1.6-.9 0-1.7-.2-2.5-.7-.7.1-1.301.2-1.7.2-2.5 0-4.7-.9-6.4-2.7-1.8-1.8-2.7-4.1-2.7-6.7 0-.6.101-1.2.2-1.9-.5-.8-.7-1.8-.7-2.8 0-1.5.5-2.8 1.5-3.8 1-1.1 2.601-1 4-1m4.199 13.5c-.5 0-.899-.1-1.2-.2-.3-.2-.6-.4-.699-.5-.301-.6-.5-.9-.5-.9-.101-.3-.301-.6-.5-.8-.301-.2-.5-.3-.801-.3-.399 0-.699.1-.899.4-.2.2-.4.5-.4.8 0 .5.2 1 .5 1.6.3.5.8 1 1.4 1.3.8.4 1.899.7 3.1.7 1 0 1.9-.2 2.7-.5.8-.4 1.3-.8 1.7-1.4.399-.6.6-1.3.6-2 0-.6-.1-1.1-.3-1.6-.2-.4-.5-.7-1-1.1-.5-.3-1-.5-1.5-.7-.9-.3-1.5-.4-1.9-.5-.199 0-.399-.1-.699-.1-.301-.1-.4-.1-.5-.1-.301-.1-.5-.2-.7-.3-.2-.1-.4-.2-.5-.4-.101-.1-.2-.3-.2-.5 0-.3.2-.6.5-.8.3-.3.8-.4 1.5-.4.6 0 1.1.1 1.4.4.3.3.6.6.699 1 .2.3.4.6.5.7.2.2.5.2.7.2.3 0 .601-.1.9-.4.2-.2.399-.5.399-.9 0-.3-.1-.6-.3-1-.2-.3-.5-.6-.8-.9-.4-.3-.8-.5-1.4-.7-.6-.2-1.3-.3-2-.3-.899 0-1.8.1-2.5.4-.699.3-1.3.7-1.699 1.2-.4.5-.601 1.1-.601 1.8s.2 1.3.5 1.8c.4.5.9.9 1.5 1.1.601.3 1.4.5 2.3.7.2 0 .301.1.601.1.2.1.399.1.6.2.2 0 .3.1.4.1.399.1.7.3.899.5.2.2.4.5.4.8 0 .4-.2.8-.6 1.1-.3.3-.9.4-1.6.4m-4-16.1c-2.1 0-3.899.8-5.3 2.3s-2.2 3.3-2.2 5.4c0 1.1.2 2.1.601 3-.101.5-.101.9-.101 1.4 0 3.1 1.101 5.9 3.2 8.1 2.2 2.2 4.8 3.4 7.9 3.4.3 0 .699 0 1.1-.1.9.4 1.8.5 2.7.5 2 0 3.899-.8 5.3-2.3s2.2-3.4 2.2-5.4c0-.9-.101-1.7-.4-2.6.101-.6.101-1.1.101-1.6 0-3.1-1.101-5.9-3.2-8.1-2.2-2.2-4.8-3.4-7.9-3.4h-1c-.901-.4-1.901-.6-3.001-.6z"/></symbol><symbol viewBox="-442 -832.988 24 24" id="tick"><path d="M-421.652-829.353l-12.223 12.223-4.472-4.472c-.896-.895-2.087-.895-2.981 0-.896.745-.896 2.086 0 2.981l5.962 5.962c.447.447.894.595 1.49.595.594 0 1.044-.15 1.491-.595l13.713-13.713c.894-.894.894-2.086 0-2.981-.894-.745-2.235-.745-2.98 0z"/></symbol><symbol viewBox="669.902 459.5 24 24" id="video-camera"><path d="M680 480h3c.1 0-.1 0 0 0 .5-.1 1-.5 1-1v-2h4c.5 0 1-1.1 1-1v-1.6l3.1.799c.2.102.4 0 .603 0 .1 0 .2-.1.3-.199.3-.199.9-.699.9-1v-9c0-.301-.7-.6-.9-.801-.3-.199-.6-.299-1-.199l-3.1.801v-1.102c0-.6-.4-.699-1-.699h-17c-.603 0-1 .4-1 1v12c0 .6.397 1 1 1h4l-.103 1.6c0 .301.103.5.3.701.2.199.5.6.803.6h2M682 478h-5v-1h5v1zm5-3h-15v-10h15v10zm5-2l-3-.801V466.9l3-1v7.1z"/><path d="M675 470.1c-.4.1-.7.4-.9.701a1.476 1.476 0 0 0-.1 1.1c.1.4.4.699.7.9.3.199.8.199 1.1.1.4-.1.7-.396.9-.701.2-.299.2-.799.1-1.1-.1-.4-.397-.699-.7-.9-.3-.2-.7-.2-1.1-.1z"/></symbol></svg>