<?xml version="1.0" encoding="iso-8859-1"?>
<!-- Generator: Adobe Illustrator 16.2.0, SVG Export Plug-In . SVG Version: 6.00 Build 0)  -->
<!DOCTYPE svg PUBLIC "-//W3C//DTD SVG 1.1//EN" "http://www.w3.org/Graphics/SVG/1.1/DTD/svg11.dtd">
<svg version="1.1" id="&#x421;&#x43B;&#x43E;&#x439;_1"
	 xmlns="http://www.w3.org/2000/svg" xmlns:xlink="http://www.w3.org/1999/xlink" x="0px" y="0px" width="24px" height="16.9px"
	 viewBox="0 0 24 16.9" style="enable-background:new 0 0 24 16.9;" xml:space="preserve">
<path d="M11.7,4.25L4.598-3.15c-0.398-0.4-1.1-0.4-1.6,0c-0.4,0.399-0.4,1.199,0,1.6l5.2,5.4h-19.1c-0.6,0-1.1,0.5-1.1,1.1
	c0,0.601,0.5,1.101,1.1,1.101H8.201L3,11.55c-0.4,0.4-0.4,1.2,0,1.601c0.2,0.2,0.5,0.301,0.8,0.301c0.3,0,0.602-0.101,0.8-0.301
	l7.1-7.4C12.1,5.449,12.1,4.65,11.7,4.25z"/>
</svg>
