<?xml version="1.0" encoding="iso-8859-1"?>
<!-- Generator: Adobe Illustrator 16.2.0, SVG Export Plug-In . SVG Version: 6.00 Build 0)  -->
<!DOCTYPE svg PUBLIC "-//W3C//DTD SVG 1.1//EN" "http://www.w3.org/Graphics/SVG/1.1/DTD/svg11.dtd">
<svg version="1.1" id="&#x421;&#x43B;&#x43E;&#x439;_1"
	 xmlns="http://www.w3.org/2000/svg" xmlns:xlink="http://www.w3.org/1999/xlink" x="0px" y="0px" width="24.002px" height="24px"
	 viewBox="0 0 24.002 24" style="enable-background:new 0 0 24.002 24;" xml:space="preserve">
<path d="M23.702,11.248l-7.102-7.4c-0.398-0.4-1.102-0.4-1.602,0c-0.398,0.398-0.398,1.198,0,1.6l5.2,5.4H1.1
	c-0.6,0-1.1,0.5-1.1,1.1c0,0.601,0.5,1.101,1.1,1.101h19.103l-5.201,5.499c-0.399,0.399-0.399,1.2,0,1.603
	c0.2,0.199,0.5,0.302,0.8,0.302c0.301,0,0.602-0.103,0.801-0.302l7.101-7.399C24.103,12.447,24.103,11.648,23.702,11.248z"/>
</svg>
