<?xml version="1.0" encoding="iso-8859-1"?>
<!-- Generator: Adobe Illustrator 16.2.0, SVG Export Plug-In . SVG Version: 6.00 Build 0)  -->
<!DOCTYPE svg PUBLIC "-//W3C//DTD SVG 1.1//EN" "http://www.w3.org/Graphics/SVG/1.1/DTD/svg11.dtd">
<svg version="1.1" id="&#x421;&#x43B;&#x43E;&#x439;_1"
	 xmlns="http://www.w3.org/2000/svg" xmlns:xlink="http://www.w3.org/1999/xlink" x="0px" y="0px" width="24px" height="24px"
	 viewBox="0 0 24 24" style="enable-background:new 0 0 24 24;" xml:space="preserve">
<path d="M20.874,17.199c-0.699-0.398-1.699-1.1-1.699-1.699c0.102-4.299-0.898-7.599-2.9-9.499c-0.5-0.4-1-0.801-1.5-1.1
	c0.4-0.5,0.602-1.1,0.602-1.801c0-1.699-1.5-3.1-3.299-3.1c-1.801,0-3.301,1.4-3.301,3.1c0,0.701,0.2,1.301,0.6,1.801
	c-0.5,0.299-1,0.6-1.5,1.1c-2,1.9-3,5.199-2.9,9.499c0,0.699-1,1.301-1.7,1.699c-0.6,0.4-1.5,0.9-1.2,1.801
	c0.3,0.9,0.7,1.102,5.8,1.102C8.076,22,9.775,24,11.974,24c2.201,0,3.9-2,4.102-3.898c5.102,0,5.5-0.199,5.801-1.102
	C22.274,18.102,21.476,17.602,20.874,17.199z M12.076,2.001c0.601,0,1.198,0.5,1.198,1.1s-0.5,1.1-1.198,1.1
	c-0.601,0-1.201-0.5-1.201-1.1S11.374,2.001,12.076,2.001z M12.076,22c-0.9,0-1.701-1-1.9-1.898c0.6,0,3.301,0,3.9,0
	C13.774,21,12.976,22,12.076,22z M5.674,18c0.8-0.6,1.5-1.5,1.4-2.6c-0.1-3.7,0.7-6.6,2.3-8.1c0.8-0.7,1.702-1.102,2.702-1.102
	s1.897,0.4,2.698,1.102c1.602,1.5,2.4,4.398,2.303,8.1c0,1.199,0.697,2,1.398,2.6C16.675,18.102,7.475,18.102,5.674,18z"/>
</svg>
