<?xml version="1.0" encoding="iso-8859-1"?>
<!-- Generator: Adobe Illustrator 16.2.0, SVG Export Plug-In . SVG Version: 6.00 Build 0)  -->
<!DOCTYPE svg PUBLIC "-//W3C//DTD SVG 1.1//EN" "http://www.w3.org/Graphics/SVG/1.1/DTD/svg11.dtd">
<svg version="1.1" id="&#x421;&#x43B;&#x43E;&#x439;_1"
	 xmlns="http://www.w3.org/2000/svg" xmlns:xlink="http://www.w3.org/1999/xlink" x="0px" y="0px" width="19.967px" height="24px"
	 viewBox="0 0 19.967 24" style="enable-background:new 0 0 19.967 24;" xml:space="preserve">
<path d="M14.875,5.199c-0.699-0.398-1.699-1.1-1.699-1.699c0.101-4.301-0.899-7.6-2.9-9.5c-0.5-0.4-1-0.801-1.5-1.1
	c0.4-0.5,0.6-1.1,0.6-1.801c0-1.699-1.5-3.1-3.299-3.1c-1.801,0-3.301,1.4-3.301,3.1c0,0.701,0.2,1.301,0.6,1.801
	c-0.5,0.299-1,0.6-1.5,1.1c-2,1.9-3,5.199-2.9,9.5c0,0.699-1,1.301-1.7,1.699c-0.6,0.4-1.5,0.9-1.2,1.801c0.3,0.9,0.7,1.1,5.8,1.1
	c0.2,1.9,1.9,3.9,4.099,3.9c2.201,0,3.9-2,4.101-3.9c5.101,0,5.5-0.199,5.8-1.1C16.274,6.1,15.476,5.6,14.875,5.199z M6.076-10
	c0.6,0,1.199,0.5,1.199,1.1s-0.5,1.1-1.199,1.1c-0.601,0-1.201-0.5-1.201-1.1S5.375-10,6.076-10z M6.076,10c-0.9,0-1.701-1-1.9-1.9
	c0.6,0,3.3,0,3.9,0C7.775,9,6.976,10,6.076,10z M-0.325,6c0.8-0.6,1.5-1.5,1.4-2.6c-0.1-3.701,0.7-6.6,2.3-8.1
	c0.8-0.701,1.701-1.102,2.701-1.102s1.899,0.4,2.699,1.102c1.6,1.5,2.4,4.398,2.301,8.1c0,1.199,0.698,2,1.399,2.6
	C10.676,6.1,1.476,6.1-0.325,6z"/>
</svg>
