<?xml version="1.0" encoding="iso-8859-1"?>
<!-- Generator: Adobe Illustrator 16.2.0, SVG Export Plug-In . SVG Version: 6.00 Build 0)  -->
<!DOCTYPE svg PUBLIC "-//W3C//DTD SVG 1.1//EN" "http://www.w3.org/Graphics/SVG/1.1/DTD/svg11.dtd">
<svg version="1.1" id="&#x421;&#x43B;&#x43E;&#x439;_1"
	 xmlns="http://www.w3.org/2000/svg" xmlns:xlink="http://www.w3.org/1999/xlink" x="0px" y="0px" width="24px" height="24px"
	 viewBox="-2 -2 24 24" style="enable-background:new -2 -2 24 24;" xml:space="preserve">
<path d="M20.5-1.928h-8.25c-0.75,0-1.5,0.601-1.5,1.5c0,0.903,0.601,1.5,1.5,1.5h4.649L9.101,8.873c-0.299,0.3-0.451,0.6-0.451,1.05
	s0.152,0.75,0.451,1.05c0.299,0.301,0.599,0.451,1.049,0.451c0.451,0,0.75-0.152,1.05-0.451L19,3.173v4.651
	c0,0.75,0.601,1.5,1.5,1.5s1.5-0.597,1.5-1.5v-8.25C22-1.327,21.399-1.928,20.5-1.928z"/>
<path d="M14.5,19.073H1V5.574h9l3-3H-0.8c-0.75,0-1.2,0.601-1.2,1.203v16.948c0,0.75,0.6,1.201,1.2,1.201h16.95
	c0.75,0,1.201-0.595,1.201-1.201V6.928l-3,3v9.154h0.151v-0.009H14.5z"/>
</svg>
