<?xml version="1.0" encoding="iso-8859-1"?>
<!-- Generator: Adobe Illustrator 16.2.0, SVG Export Plug-In . SVG Version: 6.00 Build 0)  -->
<!DOCTYPE svg PUBLIC "-//W3C//DTD SVG 1.1//EN" "http://www.w3.org/Graphics/SVG/1.1/DTD/svg11.dtd">
<svg version="1.1" id="&#x421;&#x43B;&#x43E;&#x439;_1"
	 xmlns="http://www.w3.org/2000/svg" xmlns:xlink="http://www.w3.org/1999/xlink" x="0px" y="0px" width="24px" height="24px"
	 viewBox="0 0 24 24" style="enable-background:new 0 0 24 24;" xml:space="preserve">
<path d="M-9-5.5H9c1.7,0,3,1.3,3,3v16c0,1.7-1.3,3-3,3H-9c-1.7,0-3-1.3-3-3v-16C-12-4.2-10.7-5.5-9-5.5z"/>
<path d="M-9-3.5H9c0.6,0,1,0.4,1,1v16c0,0.6-0.4,1-1,1H-9c-0.6,0-1-0.4-1-1v-16C-10-3.1-9.6-3.5-9-3.5z"/>
<path d="M-5-7.5h1c0.6,0,1,0.4,1,1v2c0,0.6-0.4,1-1,1h-1c-0.6,0-1-0.4-1-1v-2C-6-7.1-5.6-7.5-5-7.5z"/>
<path d="M4-7.5h1c0.6,0,1,0.4,1,1v2c0,0.6-0.4,1-1,1H4c-0.6,0-1-0.4-1-1v-2C3-7.1,3.4-7.5,4-7.5z"/>
<path d="M2,0.5h4c0.6,0,1,0.4,1,1v2c0,0.6-0.4,1-1,1H2c-0.6,0-1-0.4-1-1v-2C1,0.9,1.4,0.5,2,0.5z"/>
<path d="M-6,0.5h4c0.6,0,1,0.4,1,1v2c0,0.6-0.4,1-1,1h-4c-0.6,0-1-0.4-1-1v-2C-7,0.9-6.6,0.5-6,0.5z"/>
<path d="M2,6.5h4c0.6,0,1,0.4,1,1v2c0,0.6-0.4,1-1,1H2c-0.6,0-1-0.4-1-1v-2C1,6.9,1.4,6.5,2,6.5z"/>
<path d="M-6,6.5h4c0.6,0,1,0.4,1,1v2c0,0.6-0.4,1-1,1h-4c-0.6,0-1-0.4-1-1v-2C-7,6.9-6.6,6.5-6,6.5z"/>
</svg>
