<?xml version="1.0" encoding="iso-8859-1"?>
<!-- Generator: Adobe Illustrator 16.2.0, SVG Export Plug-In . SVG Version: 6.00 Build 0)  -->
<!DOCTYPE svg PUBLIC "-//W3C//DTD SVG 1.1//EN" "http://www.w3.org/Graphics/SVG/1.1/DTD/svg11.dtd">
<svg version="1.1" id="&#x421;&#x43B;&#x43E;&#x439;_1"
	 xmlns="http://www.w3.org/2000/svg" xmlns:xlink="http://www.w3.org/1999/xlink" x="0px" y="0px" width="24px" height="24px"
	 viewBox="0 0 24 24" style="enable-background:new 0 0 24 24;" xml:space="preserve">
<g>
	<path d="M21,2h-3V1c0-0.552-0.448-1-1-1h-1c-0.553,0-1,0.448-1,1v1H9V1c0-0.552-0.448-1-1-1H7C6.447,0,6,0.448,6,1v1H3
		C1.343,2,0,3.343,0,5v16c0,1.657,1.343,3,3,3h18c1.657,0,3-1.343,3-3V5C24,3.343,22.657,2,21,2z M22,21c0,0.553-0.448,1-1,1H3
		c-0.552,0-1-0.447-1-1V5c0-0.553,0.447-1,1-1h4h1h8h1h4c0.552,0,1,0.447,1,1V21z"/>
	<path d="M18,8h-4c-0.553,0-1,0.448-1,1v2c0,0.552,0.448,1,1,1h4c0.552,0,1-0.448,1-1V9C19,8.448,18.552,8,18,8z"/>
	<path d="M10,8H6C5.447,8,5,8.448,5,9v2c0,0.552,0.448,1,1,1h4c0.552,0,1-0.448,1-1V9C11,8.448,10.552,8,10,8z"/>
	<path d="M18,14h-4c-0.553,0-1,0.447-1,1v2c0,0.553,0.448,1,1,1h4c0.552,0,1-0.447,1-1v-2C19,14.447,18.552,14,18,14z"/>
	<path d="M10,14H6c-0.553,0-1,0.447-1,1v2c0,0.553,0.448,1,1,1h4c0.552,0,1-0.447,1-1v-2C11,14.447,10.552,14,10,14z"/>
</g>
</svg>
