<?xml version="1.0" encoding="iso-8859-1"?>
<!-- Generator: Adobe Illustrator 16.2.0, SVG Export Plug-In . SVG Version: 6.00 Build 0)  -->
<!DOCTYPE svg PUBLIC "-//W3C//DTD SVG 1.1//EN" "http://www.w3.org/Graphics/SVG/1.1/DTD/svg11.dtd">
<svg version="1.1" id="&#x421;&#x43B;&#x43E;&#x439;_1"
	 xmlns="http://www.w3.org/2000/svg" xmlns:xlink="http://www.w3.org/1999/xlink" x="0px" y="0px" width="24px" height="24px"
	 viewBox="0 0 24 24" style="enable-background:new 0 0 24 24;" xml:space="preserve">
<g>
	<path d="M11.999,8.563c-2.191,0-3.983,1.795-3.983,3.983c0,2.189,1.792,3.984,3.983,3.984c2.188,0,3.983-1.795,3.983-3.984
		C15.982,10.358,14.189,8.563,11.999,8.563z M11.999,14.539c-1.395,0-1.992-0.598-1.992-1.992c0-1.393,0.597-1.992,1.992-1.992
		c1.394,0,1.992,0.599,1.992,1.992C13.991,13.941,13.395,14.539,11.999,14.539z"/>
	<path d="M20.962,4.579h-0.996l-0.797-0.398c-0.198-0.398-0.498-0.598-0.896-0.598h-4.481c-0.397,0-0.797,0.198-0.896,0.599
		L12,4.579H6.024V3.584H3.037v0.995C1.244,4.58,0.05,6.473,0.05,8.167v9.062c0,1.795,1.494,3.188,3.286,3.188h17.428
		c1.793,0,3.286-1.393,3.286-3.188V8.167C23.949,6.472,22.755,4.579,20.962,4.579z M20.661,18.623H3.234
		c-0.695,0-1.294-0.6-1.294-1.295V8.263c0-0.696,0.298-1.593,0.996-1.593h17.925c0.697,0,0.996,0.895,0.996,1.593l0.101,9.065
		C21.958,18.023,21.357,18.623,20.661,18.623z"/>
</g>
</svg>
