<?xml version="1.0" encoding="iso-8859-1"?>
<!-- Generator: Adobe Illustrator 16.2.0, SVG Export Plug-In . SVG Version: 6.00 Build 0)  -->
<!DOCTYPE svg PUBLIC "-//W3C//DTD SVG 1.1//EN" "http://www.w3.org/Graphics/SVG/1.1/DTD/svg11.dtd">
<svg version="1.1" id="&#x421;&#x43B;&#x43E;&#x439;_1"
	 xmlns="http://www.w3.org/2000/svg" xmlns:xlink="http://www.w3.org/1999/xlink" x="0px" y="0px" width="22.1px" height="21.085px"
	 viewBox="0 0 22.1 21.085" style="enable-background:new 0 0 22.1 21.085;" xml:space="preserve">
<path d="M-501,493c-0.601,0-1,0.301-1,0.801v11.6c0,0.5,0.399,0.699,1,0.699h7c0.3,0,0.8-0.199,1,0l4,3v-1.799
	c0-0.5,0.5-1.201,1-1.201h3c0.6,0,1-0.199,1-0.699v-11.6c0-0.5-0.4-0.801-1-0.801H-501L-501,493z M-488.7,511.699L-494,508h-7
	c-1.7,0-3-1.101-3-2.699v-11.603c0-1.5,1.399-2.799,3.1-2.799h15.9c1.7,0,3.1,1.199,3.1,2.799v11.603c0,1.5-1.3,2.699-3,2.699h-2v3
	C-487,511.9-488.1,512.301-488.7,511.699L-488.7,511.699z"/>
</svg>
