<?xml version="1.0" encoding="iso-8859-1"?>
<!-- Generator: Adobe Illustrator 16.2.0, SVG Export Plug-In . SVG Version: 6.00 Build 0)  -->
<!DOCTYPE svg PUBLIC "-//W3C//DTD SVG 1.1//EN" "http://www.w3.org/Graphics/SVG/1.1/DTD/svg11.dtd">
<svg version="1.1" id="&#x421;&#x43B;&#x43E;&#x439;_1"
	 xmlns="http://www.w3.org/2000/svg" xmlns:xlink="http://www.w3.org/1999/xlink" x="0px" y="0px" width="24px" height="24px"
	 viewBox="0 0 24 24" style="enable-background:new 0 0 24 24;" xml:space="preserve">
<path style="fill-rule:evenodd;clip-rule:evenodd;" d="M16.269,12l6.847-6.848c1.179-1.178,1.179-3.089,0-4.269
	c-1.179-1.178-3.09-1.178-4.269,0L12,7.731L5.154,0.884c-1.179-1.178-3.09-1.178-4.269,0c-1.179,1.18-1.179,3.091,0,4.269L7.73,12
	l-6.846,6.846c-1.179,1.178-1.179,3.09,0,4.27c1.179,1.178,3.09,1.178,4.269,0L12,16.27l6.847,6.846c1.179,1.178,3.09,1.178,4.269,0
	c1.179-1.18,1.179-3.091,0-4.27L16.269,12z"/>
</svg>
