<?xml version="1.0" encoding="iso-8859-1"?>
<!-- Generator: Adobe Illustrator 16.2.0, SVG Export Plug-In . SVG Version: 6.00 Build 0)  -->
<!DOCTYPE svg PUBLIC "-//W3C//DTD SVG 1.1//EN" "http://www.w3.org/Graphics/SVG/1.1/DTD/svg11.dtd">
<svg version="1.1" id="&#x421;&#x43B;&#x43E;&#x439;_1"
	 xmlns="http://www.w3.org/2000/svg" xmlns:xlink="http://www.w3.org/1999/xlink" x="0px" y="0px" width="24px" height="24px"
	 viewBox="-6 -12 24 24" style="enable-background:new -6 -12 24 24;" xml:space="preserve">
<path d="M15.1-8.5H-3.2C-4.8-8.5-6-7.301-6-5.801V5.9c0,1.4,1.2,2.6,2.8,2.6h18.4c1.6,0,2.8-1.199,2.8-2.699V-5.801
	C17.9-7.301,16.6-8.5,15.1-8.5z M14.1-6.5L6,0l-7.8-6.5H14.1z M15.1,6.5H-3.2c-0.4,0-0.7-0.301-0.7-0.699V-5.6l9.1,7.7
	c0.2,0.201,0.4,0.201,0.7,0.201c0.199,0,0.5-0.102,0.6-0.201l9.2-7.4V5.801C15.8,6.199,15.5,6.5,15.1,6.5z"/>
</svg>
