<?xml version="1.0" encoding="iso-8859-1"?>
<!-- Generator: Adobe Illustrator 16.2.0, SVG Export Plug-In . SVG Version: 6.00 Build 0)  -->
<!DOCTYPE svg PUBLIC "-//W3C//DTD SVG 1.1//EN" "http://www.w3.org/Graphics/SVG/1.1/DTD/svg11.dtd">
<svg version="1.1" id="&#x421;&#x43B;&#x43E;&#x439;_1"
	 xmlns="http://www.w3.org/2000/svg" xmlns:xlink="http://www.w3.org/1999/xlink" x="0px" y="0px" width="17px" height="24px"
	 viewBox="-504.1 675 17 24" style="enable-background:new -504.1 675 17 24;" xml:space="preserve">
<path d="M-502,697h13v-11h-13V697L-502,697z M-496,675c3.3,0,6,2.9,6,6.4l-0.1,2.6l0,0c0.6,0,3,0.1,3,3v9c0,2.199-1.1,3-3,3h-11
	c-0.6,0-3-0.1-3-3c0,0,0-10,0-9c0-2.199,1.5-2.9,3-3h9l0.1-2.6c0-2.4-1.8-4.4-4-4.4s-4,1-4,3.4l0,0c0,0.6-0.4,1-1,1s-1-0.4-1-1l0,0
	C-502,676.9-499.3,675-496,675L-496,675z"/>
</svg>
