<?xml version="1.0" encoding="iso-8859-1"?>
<!-- Generator: Adobe Illustrator 16.2.0, SVG Export Plug-In . SVG Version: 6.00 Build 0)  -->
<!DOCTYPE svg PUBLIC "-//W3C//DTD SVG 1.1//EN" "http://www.w3.org/Graphics/SVG/1.1/DTD/svg11.dtd">
<svg version="1.1" id="&#x421;&#x43B;&#x43E;&#x439;_1"
	 xmlns="http://www.w3.org/2000/svg" xmlns:xlink="http://www.w3.org/1999/xlink" x="0px" y="0px" width="24px" height="24px"
	 viewBox="8.5 -43.95 24 24" style="enable-background:new 8.5 -43.95 24 24;" xml:space="preserve">
<path d="M20.5-20c-0.7,0-1.3-0.5-2.6-2.7C18.8-21,12-34.4,12-35.7c0-4.5,3.8-8.199,8.5-8.199S29-40.2,29-35.7c0,1.4-6.8,14.7-5.9,13
	C21.8-20.5,21.2-20,20.5-20z M20-42c-3.1,0-6,2.4-6,6c0,2.101,6.3,13,5.1,10.8c0.7,1.2,1.101,1.9,1.4,2.2c0.3-0.3,0.7-0.899,1.4-2.2
	C20.8-23.1,27-33.9,27-36C27-39.6,23.7-42,20-42z"/>
<path d="M20.5-32.3c-1.9,0-3.5-1.6-3.5-3.6s1.6-3.601,3.5-3.601S24-37.9,24-35.9S22.4-32.3,20.5-32.3z M20.5-37.6
	c-0.9,0-1.6,0.8-1.6,1.7C18.9-35,19.6-34.2,20.5-34.2s1.6-0.8,1.6-1.699C22.1-36.8,21.4-37.6,20.5-37.6z"/>
</svg>
