<?xml version="1.0" encoding="iso-8859-1"?>
<!-- Generator: Adobe Illustrator 16.2.0, SVG Export Plug-In . SVG Version: 6.00 Build 0)  -->
<!DOCTYPE svg PUBLIC "-//W3C//DTD SVG 1.1//EN" "http://www.w3.org/Graphics/SVG/1.1/DTD/svg11.dtd">
<svg version="1.1" id="&#x421;&#x43B;&#x43E;&#x439;_1"
	 xmlns="http://www.w3.org/2000/svg" xmlns:xlink="http://www.w3.org/1999/xlink" x="0px" y="0px" width="24px" height="24px"
	 viewBox="-394.5 488 24 24" style="enable-background:new -394.5 488 24 24;" xml:space="preserve">
<path d="M-374,499.5c0-0.4-0.3-0.699-0.7-0.699c-0.4,0-0.7,0.299-0.7,0.699c0,3.9-3.2,7.1-7.1,7.1s-7.1-3.199-7.1-7.1
	c0-0.4-0.3-0.699-0.7-0.699c-0.4,0-0.7,0.299-0.7,0.699c0,4.5,2.3,8.4,7.8,8.5l0.2,2h-3c-0.4,0-1,0.6-1,1s0.2,1,0.6,1h7.8
	c0.4,0,0.6-0.6,0.6-1s-0.6-1-1-1h-2v-2C-376.6,507.6-374,504-374,499.5z"/>
<path d="M-382.5,504.1c2.5,0,4.5-1.6,4.5-4.1v-7c0-2.6-2-5-4.5-5s-4.5,2.4-4.5,5v7C-387,502.6-385,504.1-382.5,504.1z M-385,493
	c0-1.801,0.7-3.6,2.5-3.6s2.5,1.799,2.5,3.6v7c0,1.801-0.7,2.699-2.5,2.699s-2.5-0.898-2.5-2.699V493L-385,493z"/>
</svg>
