<?xml version="1.0" encoding="iso-8859-1"?>
<!-- Generator: Adobe Illustrator 16.2.0, SVG Export Plug-In . SVG Version: 6.00 Build 0)  -->
<!DOCTYPE svg PUBLIC "-//W3C//DTD SVG 1.1//EN" "http://www.w3.org/Graphics/SVG/1.1/DTD/svg11.dtd">
<svg version="1.1" id="&#x421;&#x43B;&#x43E;&#x439;_1"
	 xmlns="http://www.w3.org/2000/svg" xmlns:xlink="http://www.w3.org/1999/xlink" x="0px" y="0px" width="24px" height="24.001px"
	 viewBox="104 -38.45 24 24.001" style="enable-background:new 104 -38.45 24 24.001;" xml:space="preserve">
<path d="M121.279-38.45h-10.559c-1.154,0-2.145,0.907-2.145,2.062v19.877c0,1.155,0.906,2.062,2.145,2.062h10.559
	c1.154,0,2.144-0.907,2.144-2.062v-19.877C123.423-37.543,122.434-38.45,121.279-38.45z M112.948-36.883h6.021
	c0.165,0,0.248,0.246,0.248,0.495c0,0.248-0.082,0.495-0.248,0.495h-6.021c-0.165,0-0.247-0.247-0.247-0.495
	C112.701-36.637,112.866-36.883,112.948-36.883z M116-16.099c-0.743,0-1.318-0.577-1.318-1.319c0-0.743,0.575-1.32,1.318-1.32
	s1.318,0.577,1.318,1.32C117.318-16.676,116.743-16.099,116-16.099z M121.771-20.305h-11.545v-14.021h11.545V-20.305z"/>
</svg>
