<?xml version="1.0" encoding="iso-8859-1"?>
<!-- Generator: Adobe Illustrator 16.2.0, SVG Export Plug-In . SVG Version: 6.00 Build 0)  -->
<!DOCTYPE svg PUBLIC "-//W3C//DTD SVG 1.1//EN" "http://www.w3.org/Graphics/SVG/1.1/DTD/svg11.dtd">
<svg version="1.1" id="&#x421;&#x43B;&#x43E;&#x439;_1"
	 xmlns="http://www.w3.org/2000/svg" xmlns:xlink="http://www.w3.org/1999/xlink" x="0px" y="0px" width="24px" height="24px"
	 viewBox="-403.5 -836 24 24" style="enable-background:new -403.5 -836 24 24;" xml:space="preserve">
<path d="M-386.3-818.8c-0.2,0-0.4-0.1-0.6-0.2c-0.3-0.3-0.3-0.8,0-1.2l3-3h-12c-0.5,0-0.8-0.4-0.8-0.8s0.4-0.8,0.8-0.8h12l-3-3
	c-0.3-0.3-0.3-0.8,0-1.2c0.3-0.3,0.9-0.3,1.2,0l4.5,4.4c0.2,0.2,0.2,0.4,0.2,0.6s-0.1,0.4-0.2,0.6l-4.5,4.4
	C-385.9-818.9-386.1-818.8-386.3-818.8z"/>
<path d="M-387.8-812h-13.4c-0.5,0-0.8-0.4-0.8-0.8V-835.2c0-0.5,0.4-0.8,0.8-0.8h13.4c0.5,0,0.8,0.4,0.8,0.8v2.8
	c0,0.5-0.4,0.8-0.8,0.8c-0.5,0-0.8-0.4-0.8-0.8v-2h-11.7v20.7h11.7v-2c0-0.5,0.4-0.8,0.8-0.8c0.5,0,0.8,0.4,0.8,0.8v2.8
	C-386.9-812.4-387.3-812-387.8-812z"/>
</svg>
