<?xml version="1.0" encoding="iso-8859-1"?>
<!-- Generator: Adobe Illustrator 16.2.0, SVG Export Plug-In . SVG Version: 6.00 Build 0)  -->
<!DOCTYPE svg PUBLIC "-//W3C//DTD SVG 1.1//EN" "http://www.w3.org/Graphics/SVG/1.1/DTD/svg11.dtd">
<svg version="1.1" id="&#x421;&#x43B;&#x43E;&#x439;_1"
	 xmlns="http://www.w3.org/2000/svg" xmlns:xlink="http://www.w3.org/1999/xlink" x="0px" y="0px" width="24.062px"
	 height="22.931px" viewBox="-492.538 558.907 24.062 22.931" style="enable-background:new -492.538 558.907 24.062 22.931;"
	 xml:space="preserve">
<path d="M-470.8,564.801l-1.6,1.5l-4-3.801l1.6-1.5c0.3-0.301,0.9-0.301,1.2,0l2.8,2.6C-470.4,563.9-470.4,564.4-470.8,564.801
	L-470.8,564.801z M-484,577.5l-4-3.801l10.3-9.799l4,3.799L-484,577.5L-484,577.5z M-488.9,575.5l3,2.801l-4.1,1.1L-488.9,575.5
	L-488.9,575.5z M-469.3,562.301l-2.8-2.602c-0.5-0.5-2.5-1.5-4,0l-14,13.4c-0.1,0.1-0.2,0.301-0.3,0.4l-2.1,7.197
	c-0.1,0.303,0,0.701,0.3,0.9c0.3,0.201,0.8,0.301,1,0.201l7.5-2c0.2,0,0.3-0.102,0.4-0.201l14-13.4
	C-468.2,565.1-468.2,563.301-469.3,562.301L-469.3,562.301z"/>
</svg>
