<?xml version="1.0" encoding="iso-8859-1"?>
<!-- Generator: Adobe Illustrator 16.2.0, SVG Export Plug-In . SVG Version: 6.00 Build 0)  -->
<!DOCTYPE svg PUBLIC "-//W3C//DTD SVG 1.1//EN" "http://www.w3.org/Graphics/SVG/1.1/DTD/svg11.dtd">
<svg version="1.1" id="&#x421;&#x43B;&#x43E;&#x439;_1"
	 xmlns="http://www.w3.org/2000/svg" xmlns:xlink="http://www.w3.org/1999/xlink" x="0px" y="0px" width="24px" height="24px"
	 viewBox="86.494 636.372 24 24" style="enable-background:new 86.494 636.372 24 24;" xml:space="preserve">
<path d="M108.176,642.816l-1.597,1.496l-3.989-3.791l1.596-1.497c0.299-0.3,0.898-0.3,1.197,0l2.793,2.593
	C108.574,641.917,108.574,642.416,108.176,642.816L108.176,642.816z M95.009,655.483l-3.989-3.793l10.273-9.773l3.989,3.789
	L95.009,655.483L95.009,655.483z M90.122,653.487l2.992,2.794l-4.09,1.097L90.122,653.487L90.122,653.487z M109.671,640.322
	l-2.792-2.596c-0.499-0.499-2.494-1.496-3.989,0l-13.964,13.365c-0.101,0.1-0.2,0.301-0.3,0.399l-2.095,7.178
	c-0.1,0.304,0,0.7,0.299,0.898c0.3,0.201,0.799,0.301,0.997,0.201l7.48-1.995c0.2,0,0.301-0.103,0.4-0.2l13.963-13.365
	C110.768,643.114,110.768,641.319,109.671,640.322L109.671,640.322z"/>
</svg>
