<?xml version="1.0" encoding="iso-8859-1"?>
<!-- Generator: Adobe Illustrator 16.2.0, SVG Export Plug-In . SVG Version: 6.00 Build 0)  -->
<!DOCTYPE svg PUBLIC "-//W3C//DTD SVG 1.1//EN" "http://www.w3.org/Graphics/SVG/1.1/DTD/svg11.dtd">
<svg version="1.1" id="&#x421;&#x43B;&#x43E;&#x439;_1"
	 xmlns="http://www.w3.org/2000/svg" xmlns:xlink="http://www.w3.org/1999/xlink" x="0px" y="0px" width="35px" height="35px"
	 viewBox="-608.793 -838.25 35 35" style="enable-background:new -608.793 -838.25 35 35;" xml:space="preserve">
<path d="M-591.895-803.25c26.968,0,9.419-20.227,7.436-19.632c1.289-1.586,1.983-3.668,1.983-5.85c0-5.255-4.264-9.518-9.519-9.518
	s-9.519,4.263-9.519,9.518c0,2.182,0.793,4.165,1.983,5.85C-603.693-820.898-616.187-803.25-591.895-803.25z M-599.232-828.632
	c0-3.966,3.272-7.238,7.238-7.238c3.966,0,7.238,3.272,7.238,7.238c0,3.966-3.271,7.238-7.238,7.238
	C-595.96-821.295-599.232-824.567-599.232-828.632z M-597.844-821.097c1.685,1.289,3.668,1.983,5.85,1.983
	c2.182,0,4.263-0.793,5.85-2.082c12.592,9.419,6.247,15.864-5.85,15.864C-603.693-805.332-609.544-811.678-597.844-821.097z"/>
<path d="M-576.13-813.066"/>
</svg>
