<?xml version="1.0" encoding="iso-8859-1"?>
<!-- Generator: Adobe Illustrator 16.2.0, SVG Export Plug-In . SVG Version: 6.00 Build 0)  -->
<!DOCTYPE svg PUBLIC "-//W3C//DTD SVG 1.1//EN" "http://www.w3.org/Graphics/SVG/1.1/DTD/svg11.dtd">
<svg version="1.1" id="&#x421;&#x43B;&#x43E;&#x439;_1"
	 xmlns="http://www.w3.org/2000/svg" xmlns:xlink="http://www.w3.org/1999/xlink" x="0px" y="0px" width="24px" height="24px"
	 viewBox="231.5 12.5 24 24" style="enable-background:new 231.5 12.5 24 24;" xml:space="preserve">
<path d="M243.351,12.503c-6.599,0.149-11.997,5.549-11.848,12.146c0.149,6.599,5.549,11.997,12.146,11.848
	c6.599-0.149,11.997-5.549,11.848-12.146C255.348,17.752,249.948,12.354,243.351,12.503z M243.351,31.849L243.351,31.849
	c-1.05,0-1.8-0.75-1.8-1.8s0.75-1.65,1.8-1.65l0,0c1.049,0,1.799,0.75,1.799,1.797C245,31.099,244.25,31.849,243.351,31.849z
	 M247.549,23.301c-0.3,0.3-0.749,0.75-1.499,1.349l-0.75,0.451c-0.449,0.299-0.601,0.596-0.75,0.899c0,0.3-0.15,0.3-0.15,0.749
	v0.149h-2.849V26.6c0-0.903,0-1.499,0.449-1.95c0.601-0.75,2.101-1.652,2.101-1.652c0.149-0.152,0.299-0.3,0.449-0.45
	c0.301-0.451,0.45-0.75,0.45-1.049c0-0.451-0.149-0.902-0.45-1.201c-0.3-0.299-0.75-0.451-1.35-0.451s-1.2,0.152-1.35,0.6
	c-0.297,0.449-0.45,0.9-0.45,1.349v0.15h-2.849v-0.15c0-1.799,0.75-3,1.8-3.749c0.75-0.448,1.648-0.75,2.699-0.75
	c1.349,0,2.549,0.302,3.448,1.052c0.899,0.749,1.351,1.648,1.351,2.999C248.299,21.95,247.999,22.7,247.549,23.301z"/>
</svg>
