<?xml version="1.0" encoding="iso-8859-1"?>
<!-- Generator: Adobe Illustrator 16.2.0, SVG Export Plug-In . SVG Version: 6.00 Build 0)  -->
<!DOCTYPE svg PUBLIC "-//W3C//DTD SVG 1.1//EN" "http://www.w3.org/Graphics/SVG/1.1/DTD/svg11.dtd">
<svg version="1.1" id="&#x421;&#x43B;&#x43E;&#x439;_1"
	 xmlns="http://www.w3.org/2000/svg" xmlns:xlink="http://www.w3.org/1999/xlink" x="0px" y="0px" width="22.9px" height="24px"
	 viewBox="-385 -545 22.9 24" style="enable-background:new -385 -545 22.9 24;" xml:space="preserve">
<path d="M-377.8-543c1,0,2,0.3,2.8,0.8c0.4-0.1,1-0.2,1.6-0.2c2.5,0,4.6,0.9,6.4,2.7c1.8,1.8,2.6,4.1,2.6,6.7c0,0.6-0.1,1.3-0.2,2
	c0.4,0.8,0.5,1.6,0.5,2.5c0,1.5-0.5,2.8-1.6,3.9c-1,1.1-2.3,1.6-3.7,1.6c-0.9,0-1.7-0.2-2.5-0.7c-0.7,0.1-1.3,0.2-1.7,0.2
	c-2.5,0-4.7-0.9-6.4-2.7c-1.8-1.8-2.7-4.1-2.7-6.7c0-0.6,0.1-1.2,0.2-1.9c-0.5-0.8-0.7-1.8-0.7-2.8c0-1.5,0.5-2.8,1.5-3.8
	c1-1.1,2.6-1,4-1 M-373.5-528.9c-0.5,0-0.9-0.1-1.2-0.2c-0.3-0.2-0.6-0.4-0.7-0.5c-0.3-0.6-0.5-0.9-0.5-0.9
	c-0.1-0.3-0.3-0.6-0.5-0.8c-0.3-0.2-0.5-0.3-0.8-0.3c-0.4,0-0.7,0.1-0.9,0.4c-0.2,0.2-0.4,0.5-0.4,0.8c0,0.5,0.2,1,0.5,1.6
	c0.3,0.5,0.8,1,1.4,1.3c0.8,0.4,1.9,0.7,3.1,0.7c1,0,1.9-0.2,2.7-0.5c0.8-0.4,1.3-0.8,1.7-1.4s0.6-1.3,0.6-2c0-0.6-0.1-1.1-0.3-1.6
	c-0.2-0.4-0.5-0.7-1-1.1c-0.5-0.3-1-0.5-1.5-0.7c-0.9-0.3-1.5-0.4-1.9-0.5c-0.2,0-0.4-0.1-0.7-0.1c-0.3-0.1-0.4-0.1-0.5-0.1
	c-0.3-0.1-0.5-0.2-0.7-0.3c-0.2-0.1-0.4-0.2-0.5-0.4c-0.1-0.1-0.2-0.3-0.2-0.5c0-0.3,0.2-0.6,0.5-0.8c0.3-0.3,0.8-0.4,1.5-0.4
	c0.6,0,1.1,0.1,1.4,0.4c0.3,0.3,0.6,0.6,0.7,1c0.2,0.3,0.4,0.6,0.5,0.7c0.2,0.2,0.5,0.2,0.7,0.2c0.3,0,0.6-0.1,0.9-0.4
	c0.2-0.2,0.4-0.5,0.4-0.9c0-0.3-0.1-0.6-0.3-1c-0.2-0.3-0.5-0.6-0.8-0.9c-0.4-0.3-0.8-0.5-1.4-0.7c-0.6-0.2-1.3-0.3-2-0.3
	c-0.9,0-1.8,0.1-2.5,0.4c-0.7,0.3-1.3,0.7-1.7,1.2s-0.6,1.1-0.6,1.8c0,0.7,0.2,1.3,0.5,1.8c0.4,0.5,0.9,0.9,1.5,1.1
	c0.6,0.3,1.4,0.5,2.3,0.7c0.2,0,0.3,0.1,0.6,0.1c0.2,0.1,0.4,0.1,0.6,0.2c0.2,0,0.3,0.1,0.4,0.1c0.4,0.1,0.7,0.3,0.9,0.5
	c0.2,0.2,0.4,0.5,0.4,0.8c0,0.4-0.2,0.8-0.6,1.1C-372.2-529-372.8-528.9-373.5-528.9 M-377.5-545c-2.1,0-3.9,0.8-5.3,2.3
	c-1.4,1.5-2.2,3.3-2.2,5.4c0,1.1,0.2,2.1,0.6,3c-0.1,0.5-0.1,0.9-0.1,1.4c0,3.1,1.1,5.9,3.2,8.1c2.2,2.2,4.8,3.4,7.9,3.4
	c0.3,0,0.7,0,1.1-0.1c0.9,0.4,1.8,0.5,2.7,0.5c2,0,3.9-0.8,5.3-2.3c1.4-1.5,2.2-3.4,2.2-5.4c0-0.9-0.1-1.7-0.4-2.6
	c0.1-0.6,0.1-1.1,0.1-1.6c0-3.1-1.1-5.9-3.2-8.1c-2.2-2.2-4.8-3.4-7.9-3.4c-0.4,0-0.7,0-1,0C-375.4-544.8-376.4-545-377.5-545z"/>
</svg>
