<?xml version="1.0" encoding="iso-8859-1"?>
<!-- Generator: Adobe Illustrator 16.2.0, SVG Export Plug-In . SVG Version: 6.00 Build 0)  -->
<!DOCTYPE svg PUBLIC "-//W3C//DTD SVG 1.1//EN" "http://www.w3.org/Graphics/SVG/1.1/DTD/svg11.dtd">
<svg version="1.1" id="&#x421;&#x43B;&#x43E;&#x439;_1"
	 xmlns="http://www.w3.org/2000/svg" xmlns:xlink="http://www.w3.org/1999/xlink" x="0px" y="0px" width="24px" height="24px"
	 viewBox="669.902 459.5 24 24" style="enable-background:new 669.902 459.5 24 24;" xml:space="preserve">
<path d="M680,480h3c0.1,0-0.1,0,0,0c0.5-0.1,1-0.5,1-1v-2h4c0.5,0,1-1.1,1-1v-1.6l3.1,0.799c0.2,0.102,0.4,0,0.603,0
	c0.1,0,0.2-0.1,0.3-0.199c0.3-0.199,0.9-0.699,0.9-1v-9c0-0.301-0.7-0.6-0.9-0.801c-0.3-0.199-0.6-0.299-1-0.199l-3.1,0.801v-1.102
	c0-0.6-0.4-0.699-1-0.699h-17c-0.603,0-1,0.4-1,1v12c0,0.6,0.397,1,1,1h4l-0.103,1.6c0,0.301,0.103,0.5,0.3,0.701
	c0.2,0.199,0.5,0.6,0.803,0.6h2 M682,478h-5v-1h5V478z M687,475h-15v-10h15V475z M692,473l-3-0.801V466.9l3-1V473z"/>
<path d="M675,470.1c-0.4,0.1-0.7,0.4-0.9,0.701c-0.197,0.398-0.197,0.799-0.1,1.1c0.1,0.4,0.4,0.699,0.7,0.9
	c0.3,0.199,0.8,0.199,1.1,0.1c0.4-0.1,0.7-0.396,0.9-0.701c0.2-0.299,0.2-0.799,0.1-1.1c-0.1-0.4-0.397-0.699-0.7-0.9
	C675.8,470,675.4,470,675,470.1z"/>
</svg>
