<svg xmlns="http://www.w3.org/2000/svg" width="24" height="24" viewBox="0 0 24 24"><path d="M20.874 17.199c-.699-.398-1.699-1.1-1.699-1.699.102-4.299-.898-7.599-2.9-9.499-.5-.4-1-.801-1.5-1.1.4-.5.602-1.1.602-1.801 0-1.699-1.5-3.1-3.299-3.1-1.801 0-3.301 1.4-3.301 3.1 0 .701.2 1.301.6 1.801-.5.299-1 .6-1.5 1.1-2 1.9-3 5.199-2.9 9.499 0 .699-1 1.301-1.7 1.699-.6.4-1.5.9-1.2 1.801.3.9.7 1.102 5.8 1.102C8.076 22 9.775 24 11.974 24c2.201 0 3.9-2 4.102-3.898 5.102 0 5.5-.199 5.801-1.102.397-.898-.401-1.398-1.003-1.801zM12.076 2.001c.601 0 1.198.5 1.198 1.1s-.5 1.1-1.198 1.1c-.601 0-1.201-.5-1.201-1.1s.499-1.1 1.201-1.1zm0 19.999c-.9 0-1.701-1-1.9-1.898h3.9c-.302.898-1.1 1.898-2 1.898zm-6.402-4c.8-.6 1.5-1.5 1.4-2.6-.1-3.7.7-6.6 2.3-8.1.8-.7 1.702-1.102 2.702-1.102s1.897.4 2.698 1.102c1.602 1.5 2.4 4.398 2.303 8.1 0 1.199.697 2 1.398 2.6-1.8.102-11 .102-12.801 0z"/></svg>