<svg xmlns="http://www.w3.org/2000/svg" width="24" height="24" viewBox="-2 -2 24 24"><path d="M20.5-1.928h-8.25c-.75 0-1.5.601-1.5 1.5 0 .903.601 1.5 1.5 1.5h4.649L9.101 8.873c-.299.3-.451.6-.451 1.05s.152.75.451 1.05c.299.301.599.451 1.049.451.451 0 .75-.152 1.05-.451l7.8-7.8v4.651c0 .75.601 1.5 1.5 1.5s1.5-.597 1.5-1.5v-8.25c0-.901-.601-1.502-1.5-1.502z"/><path d="M14.5 19.073H1V5.574h9l3-3H-.8c-.75 0-1.2.601-1.2 1.203v16.948c0 .75.6 1.201 1.2 1.201h16.95c.75 0 1.201-.595 1.201-1.201V6.928l-3 3v9.154h.151v-.009H14.5z"/></svg>