<svg xmlns="http://www.w3.org/2000/svg" width="24" height="24" viewBox="0 0 24 24"><path d="M11.999 8.563a3.996 3.996 0 0 0-3.983 3.983 3.996 3.996 0 0 0 3.983 3.984 3.998 3.998 0 0 0 3.983-3.984 3.997 3.997 0 0 0-3.983-3.983zm0 5.976c-1.395 0-1.992-.598-1.992-1.992 0-1.393.597-1.992 1.992-1.992 1.394 0 1.992.599 1.992 1.992 0 1.394-.596 1.992-1.992 1.992z"/><path d="M20.962 4.579h-.996l-.797-.398c-.198-.398-.498-.598-.896-.598h-4.481c-.397 0-.797.198-.896.599L12 4.579H6.024v-.995H3.037v.995C1.244 4.58.05 6.473.05 8.167v9.062c0 1.795 1.494 3.188 3.286 3.188h17.428c1.793 0 3.286-1.393 3.286-3.188V8.167c-.101-1.695-1.295-3.588-3.088-3.588zm-.301 14.044H3.234a1.32 1.32 0 0 1-1.294-1.295V8.263c0-.696.298-1.593.996-1.593h17.925c.697 0 .996.895.996 1.593l.101 9.065c0 .695-.601 1.295-1.297 1.295z"/></svg>