<svg xmlns="http://www.w3.org/2000/svg" width="24" height="24" viewBox="8.5 -43.95 24 24"><path d="M20.5-20c-.7 0-1.3-.5-2.6-2.7.9 1.7-5.9-11.7-5.9-13 0-4.5 3.8-8.199 8.5-8.199S29-40.2 29-35.7c0 1.4-6.8 14.7-5.9 13-1.3 2.2-1.9 2.7-2.6 2.7zM20-42c-3.1 0-6 2.4-6 6 0 2.101 6.3 13 5.1 10.8.7 1.2 1.101 1.9 1.4 2.2.3-.3.7-.899 1.4-2.2C20.8-23.1 27-33.9 27-36c0-3.6-3.3-6-7-6z"/><path d="M20.5-32.3c-1.9 0-3.5-1.6-3.5-3.6s1.6-3.601 3.5-3.601S24-37.9 24-35.9s-1.6 3.6-3.5 3.6zm0-5.3c-.9 0-1.6.8-1.6 1.7 0 .9.7 1.7 1.6 1.7s1.6-.8 1.6-1.699c0-.901-.7-1.701-1.6-1.701z"/></svg>