<svg xmlns="http://www.w3.org/2000/svg" width="24" height="24" viewBox="-394.5 488 24 24"><path d="M-374 499.5c0-.4-.3-.699-.7-.699-.4 0-.7.299-.7.699 0 3.9-3.2 7.1-7.1 7.1s-7.1-3.199-7.1-7.1c0-.4-.3-.699-.7-.699-.4 0-.7.299-.7.699 0 4.5 2.3 8.4 7.8 8.5l.2 2h-3c-.4 0-1 .6-1 1s.2 1 .6 1h7.8c.4 0 .6-.6.6-1s-.6-1-1-1h-2v-2c4.4-.4 7-4 7-8.5z"/><path d="M-382.5 504.1c2.5 0 4.5-1.6 4.5-4.1v-7c0-2.6-2-5-4.5-5s-4.5 2.4-4.5 5v7c0 2.6 2 4.1 4.5 4.1zM-385 493c0-1.801.7-3.6 2.5-3.6s2.5 1.799 2.5 3.6v7c0 1.801-.7 2.699-2.5 2.699s-2.5-.898-2.5-2.699v-7z"/></svg>