<svg xmlns="http://www.w3.org/2000/svg" width="24" height="24" viewBox="104 -38.45 24 24.001"><path d="M121.279-38.45H110.72c-1.154 0-2.145.907-2.145 2.062v19.877c0 1.155.906 2.062 2.145 2.062h10.559c1.154 0 2.144-.907 2.144-2.062v-19.877c0-1.155-.989-2.062-2.144-2.062zm-8.331 1.567h6.021c.165 0 .248.246.248.495 0 .248-.082.495-.248.495h-6.021c-.165 0-.247-.247-.247-.495 0-.249.165-.495.247-.495zM116-16.099a1.3 1.3 0 0 1-1.318-1.319c0-.743.575-1.32 1.318-1.32s1.318.577 1.318 1.32A1.3 1.3 0 0 1 116-16.099zm5.771-4.206h-11.545v-14.021h11.545v14.021z"/></svg>