<svg xmlns="http://www.w3.org/2000/svg" width="24" height="24" viewBox="86.494 636.372 24 24"><path d="M108.176 642.816l-1.597 1.496-3.989-3.791 1.596-1.497c.299-.3.898-.3 1.197 0l2.793 2.593c.398.3.398.799 0 1.199zm-13.167 12.667l-3.989-3.793 10.273-9.773 3.989 3.789-10.273 9.777zm-4.887-1.996l2.992 2.794-4.09 1.097 1.098-3.891zm19.549-13.165l-2.792-2.596c-.499-.499-2.494-1.496-3.989 0l-13.964 13.365c-.101.1-.2.301-.3.399l-2.095 7.178c-.1.304 0 .7.299.898.3.201.799.301.997.201l7.48-1.995c.2 0 .301-.103.4-.2l13.963-13.365c1.098-1.093 1.098-2.888.001-3.885z"/></svg>