<svg xmlns="http://www.w3.org/2000/svg" width="24" height="24" viewBox="-608.793 -838.25 35 35"><path d="M-591.895-803.25c26.968 0 9.419-20.227 7.436-19.632 1.289-1.586 1.983-3.668 1.983-5.85 0-5.255-4.264-9.518-9.519-9.518s-9.519 4.263-9.519 9.518c0 2.182.793 4.165 1.983 5.85-4.162 1.984-16.656 19.632 7.636 19.632zm-7.337-25.382c0-3.966 3.272-7.238 7.238-7.238 3.966 0 7.238 3.272 7.238 7.238 0 3.966-3.271 7.238-7.238 7.238-3.966.099-7.238-3.173-7.238-7.238zm1.388 7.535a9.472 9.472 0 0 0 5.85 1.983 9.353 9.353 0 0 0 5.85-2.082c12.592 9.419 6.247 15.864-5.85 15.864-11.699 0-17.55-6.346-5.85-15.765z"/></svg>