<svg xmlns="http://www.w3.org/2000/svg" width="24" height="24" viewBox="231.5 12.5 24 24"><path d="M243.351 12.503c-6.599.149-11.997 5.549-11.848 12.146.149 6.599 5.549 11.997 12.146 11.848 6.599-.149 11.997-5.549 11.848-12.146-.149-6.599-5.549-11.997-12.146-11.848zm0 19.346c-1.05 0-1.8-.75-1.8-1.8s.75-1.65 1.8-1.65c1.049 0 1.799.75 1.799 1.797-.15.903-.9 1.653-1.799 1.653zm4.198-8.548c-.3.3-.749.75-1.499 1.349l-.75.451c-.449.299-.601.596-.75.899 0 .3-.15.3-.15.749v.149h-2.849V26.6c0-.903 0-1.499.449-1.95.601-.75 2.101-1.652 2.101-1.652.149-.152.299-.3.449-.45.301-.451.45-.75.45-1.049 0-.451-.149-.902-.45-1.201-.3-.299-.75-.451-1.35-.451s-1.2.152-1.35.6c-.297.449-.45.9-.45 1.349v.15h-2.849v-.15c0-1.799.75-3 1.8-3.749a5.192 5.192 0 0 1 2.699-.75c1.349 0 2.549.302 3.448 1.052.899.749 1.351 1.648 1.351 2.999.45.602.15 1.352-.3 1.953z"/></svg>