<svg xmlns="http://www.w3.org/2000/svg" width="24" height="24" viewBox="-385.55 -545 24 24"><path d="M-377.8-543c1 0 2 .3 2.8.8.4-.1 1-.2 1.601-.2 2.5 0 4.6.9 6.399 2.7 1.8 1.8 2.601 4.1 2.601 6.7 0 .6-.101 1.3-.2 2 .399.8.5 1.6.5 2.5 0 1.5-.5 2.8-1.601 3.9-1 1.1-2.3 1.6-3.699 1.6-.9 0-1.7-.2-2.5-.7-.7.1-1.301.2-1.7.2-2.5 0-4.7-.9-6.4-2.7-1.8-1.8-2.7-4.1-2.7-6.7 0-.6.101-1.2.2-1.9-.5-.8-.7-1.8-.7-2.8 0-1.5.5-2.8 1.5-3.8 1-1.1 2.601-1 4-1m4.199 13.5c-.5 0-.899-.1-1.2-.2-.3-.2-.6-.4-.699-.5-.301-.6-.5-.9-.5-.9-.101-.3-.301-.6-.5-.8-.301-.2-.5-.3-.801-.3-.399 0-.699.1-.899.4-.2.2-.4.5-.4.8 0 .5.2 1 .5 1.6.3.5.8 1 1.4 1.3.8.4 1.899.7 3.1.7 1 0 1.9-.2 2.7-.5.8-.4 1.3-.8 1.7-1.4.399-.6.6-1.3.6-2 0-.6-.1-1.1-.3-1.6-.2-.4-.5-.7-1-1.1-.5-.3-1-.5-1.5-.7-.9-.3-1.5-.4-1.9-.5-.199 0-.399-.1-.699-.1-.301-.1-.4-.1-.5-.1-.301-.1-.5-.2-.7-.3-.2-.1-.4-.2-.5-.4-.101-.1-.2-.3-.2-.5 0-.3.2-.6.5-.8.3-.3.8-.4 1.5-.4.6 0 1.1.1 1.4.4.3.3.6.6.699 1 .2.3.4.6.5.7.2.2.5.2.7.2.3 0 .601-.1.9-.4.2-.2.399-.5.399-.9 0-.3-.1-.6-.3-1-.2-.3-.5-.6-.8-.9-.4-.3-.8-.5-1.4-.7-.6-.2-1.3-.3-2-.3-.899 0-1.8.1-2.5.4-.699.3-1.3.7-1.699 1.2-.4.5-.601 1.1-.601 1.8s.2 1.3.5 1.8c.4.5.9.9 1.5 1.1.601.3 1.4.5 2.3.7.2 0 .301.1.601.1.2.1.399.1.6.2.2 0 .3.1.4.1.399.1.7.3.899.5.2.2.4.5.4.8 0 .4-.2.8-.6 1.1-.3.3-.9.4-1.6.4m-4-16.1c-2.1 0-3.899.8-5.3 2.3s-2.2 3.3-2.2 5.4c0 1.1.2 2.1.601 3-.101.5-.101.9-.101 1.4 0 3.1 1.101 5.9 3.2 8.1 2.2 2.2 4.8 3.4 7.9 3.4.3 0 .699 0 1.1-.1.9.4 1.8.5 2.7.5 2 0 3.899-.8 5.3-2.3s2.2-3.4 2.2-5.4c0-.9-.101-1.7-.4-2.6.101-.6.101-1.1.101-1.6 0-3.1-1.101-5.9-3.2-8.1-2.2-2.2-4.8-3.4-7.9-3.4h-1c-.901-.4-1.901-.6-3.001-.6z"/></svg>