<svg xmlns="http://www.w3.org/2000/svg" width="24" height="24" viewBox="669.902 459.5 24 24"><path d="M680 480h3c.1 0-.1 0 0 0 .5-.1 1-.5 1-1v-2h4c.5 0 1-1.1 1-1v-1.6l3.1.799c.2.102.4 0 .603 0 .1 0 .2-.1.3-.199.3-.199.9-.699.9-1v-9c0-.301-.7-.6-.9-.801-.3-.199-.6-.299-1-.199l-3.1.801v-1.102c0-.6-.4-.699-1-.699h-17c-.603 0-1 .4-1 1v12c0 .6.397 1 1 1h4l-.103 1.6c0 .301.103.5.3.701.2.199.5.6.803.6h2M682 478h-5v-1h5v1zm5-3h-15v-10h15v10zm5-2l-3-.801V466.9l3-1v7.1z"/><path d="M675 470.1c-.4.1-.7.4-.9.701a1.476 1.476 0 0 0-.1 1.1c.1.4.4.699.7.9.3.199.8.199 1.1.1.4-.1.7-.396.9-.701.2-.299.2-.799.1-1.1-.1-.4-.397-.699-.7-.9-.3-.2-.7-.2-1.1-.1z"/></svg>